<svg xmlns="http://www.w3.org/2000/svg" viewBox="0 0 493.76 156.6"><path d="M53.45 71.7V29.75h-7.24v-7H92.7V39.6h-6.92v-9.85H61.89V46.4h20.79v7H61.89v18.3h23.89V61.52h6.92v17.17H46.21v-7h7.24zM130.48 54.23h-15.77l-3.35 9.91h5.32v5.48H99.43v-5.48h5.3l11.95-33.36h-5.29v-4.94h22.38v4.94h-5.47l12.25 33.36h4.9v5.48H128.3v-5.48h5.45l-3.26-9.91zm-1.65-5.14L123 30.77h-.6l-6.07 18.32h12.49zM152.01 69.62v-15.9h5.48v3.87c2.62 4.76 6.05 7.14 10.29 7.14 2.16 0 3.99-.66 5.48-1.98 1.49-1.32 2.23-3.05 2.23-5.19 0-2.14-.61-3.57-1.83-4.49-1.22-.92-3.51-1.82-6.89-2.72-3.92-1.05-6.83-2.04-8.72-2.97-1.89-.93-3.39-2.27-4.52-4-1.13-1.73-1.68-3.78-1.68-6.15 0-3.67 1.22-6.6 3.67-8.8 2.44-2.19 5.51-3.29 9.21-3.29 3.7 0 6.76 1.13 9.76 3.4v-2.93h5.35v13.28h-5.35v-3.05c-2.25-3.38-5.34-5.07-9.29-5.07-2.39 0-4.23.55-5.51 1.65-1.28 1.1-1.92 2.42-1.92 3.95 0 1.18.33 2.21.98 3.1.65.89 1.48 1.55 2.49 1.97 1.01.42 2.99 1.01 5.95 1.76 3.86 1 6.66 1.94 8.4 2.81 1.74.87 3.24 2.32 4.5 4.36 1.26 2.04 1.89 4.38 1.89 7.02 0 3.74-1.32 6.82-3.95 9.26-2.63 2.43-5.89 3.65-9.77 3.65s-7.58-1.44-10.76-4.31v3.62h-5.48zM204.03 64.14V31.31H195v11.17h-5.41V25.83h35.47v16.65h-5.41V31.31h-9v32.83h5.7v5.48h-17.91v-5.48h5.6zM237.32 64.14V31.31h-5.54v-5.48h33.96v13.19h-5.41v-7.71h-16.4v12.97h14.13v5.48h-14.13v14.38h5.6v5.48h-17.75v-5.48zM274.23 47.52c0-6.36 2.08-11.68 6.23-15.96 4.15-4.28 9.57-6.42 16.24-6.42 6.67 0 12.22 2.14 16.46 6.42 4.24 4.28 6.36 9.64 6.36 16.08 0 6.44-2.16 11.99-6.47 16.26-4.31 4.27-9.79 6.41-16.45 6.41-4.24 0-8.14-1.01-11.69-3.04-3.56-2.02-6.23-4.85-8.01-8.47-1.78-3.62-2.68-7.38-2.68-11.28zm7.21.03c0 4.81 1.41 8.83 4.22 12.09 2.81 3.25 6.5 4.88 11.08 4.88s8.26-1.66 11.17-4.99c2.92-3.33 4.38-7.3 4.38-11.91s-1.48-8.6-4.45-11.82c-2.97-3.22-6.7-4.83-11.19-4.83-4.49 0-8.12 1.58-10.95 4.75s-4.25 7.11-4.25 11.83zM334.36 64.14V31.31h-6.01v-5.48h17.78c3.71 0 6.66.29 8.84.87 2.18.58 3.99 1.79 5.41 3.65 1.42 1.86 2.14 4.17 2.14 6.94 0 5.79-3.01 9.43-9.02 10.92l7.73 15.93h5.35v5.48h-9.48l-9.97-20.46h-6.17v14.98h5.6v5.48h-18.22v-5.48h6.01zm6.61-20.46h5.16c2.5 0 4.34-.16 5.52-.49 1.19-.33 2.16-.99 2.91-1.98s1.13-2.33 1.13-4.01c0-1.43-.38-2.63-1.15-3.62-.77-.99-1.71-1.61-2.83-1.87s-2.84-.39-5.15-.39h-5.6v12.37zM378.07 64.14V31.31h-5.95v-5.48h16.93c4.68 0 8.28.24 10.81.72 2.53.48 4.98 1.57 7.35 3.27 2.37 1.7 4.26 4.03 5.68 7 1.42 2.97 2.12 6.35 2.12 10.15 0 4.32-.68 8.08-2.05 11.27-1.36 3.19-3.15 5.57-5.37 7.14-2.21 1.57-4.85 2.67-7.9 3.29-3.05.62-6.94.93-11.66.93H372.1v-5.48h5.95zm6.61 0h3.46c3.86 0 6.92-.24 9.18-.72s4.16-1.31 5.71-2.47c1.55-1.16 2.81-2.92 3.78-5.27.97-2.35 1.45-5.12 1.45-8.31 0-3.8-.79-7.02-2.38-9.66-1.58-2.64-3.61-4.37-6.07-5.18-2.47-.81-6.26-1.21-11.38-1.21h-3.75v32.83z"/><path d="M42.85 75.4c-.07.43-.11.85-.11 1.28v1.28c0 1.49.27 2.73.8 3.73s1.23 1.8 2.08 2.4c.85.6 1.83 1.03 2.93 1.28s2.22.37 3.36.37c1.92 0 3.87-.48 5.86-1.44 1.99-.96 3.8-2.27 5.44-3.94 1.63-1.67 2.97-3.61 4-5.81 1.03-2.2 1.55-4.51 1.55-6.93 0-2.98-.82-4.99-2.45-6.02-1.64-1.03-3.84-1.55-6.61-1.55-3.2 0-6.71.76-10.55 2.29-3.84 1.53-7.73 3.64-11.67 6.34-3.94 2.7-7.75 5.9-11.4 9.59a79.875 79.875 0 0 0-9.81 12.04c-2.88 4.34-5.17 8.88-6.87 13.64-1.7 4.76-2.56 9.59-2.56 14.49 0 1.99.25 3.98.75 5.97.49 1.99 1.28 3.78 2.34 5.38 1.06 1.6 2.45 2.88 4.15 3.84 1.71.96 3.77 1.44 6.18 1.44 3.48 0 6.8-.8 9.96-2.4a29.51 29.51 0 0 0 8.31-6.23c2.38-2.56 4.28-5.42 5.7-8.58s2.13-6.31 2.13-9.43c0-2.84-.84-5.01-2.5-6.5-1.67-1.49-3.93-2.24-6.77-2.24l-.11-1.28c4.48 0 7.8.89 9.97 2.67 2.17 1.78 3.25 4.79 3.25 9.06 0 2.49-.66 5.26-1.97 8.31-1.32 3.06-3.25 5.92-5.81 8.58-2.56 2.67-5.74 4.89-9.54 6.66-3.8 1.78-8.15 2.67-13.06 2.67-3.69 0-6.8-.64-9.32-1.92-2.52-1.28-4.57-2.88-6.13-4.8-1.56-1.92-2.68-4-3.36-6.23-.68-2.24-1.01-4.32-1.01-6.23 0-4.48.96-9.04 2.88-13.7C4.8 98.83 7.34 94.33 10.5 90s6.8-8.4 10.92-12.2c4.12-3.8 8.37-7.1 12.74-9.91 4.37-2.81 8.74-5.02 13.11-6.66 4.37-1.63 8.36-2.45 11.99-2.45 4.48 0 7.81.92 10.02 2.77 2.2 1.85 3.3 4.55 3.3 8.1 0 2.49-.59 4.8-1.76 6.93s-2.74 3.96-4.69 5.49c-1.96 1.53-4.18 2.74-6.66 3.62-2.49.89-5.05 1.33-7.68 1.33-2.77 0-5.15-.66-7.14-1.97-1.99-1.31-3.06-3.57-3.19-6.77v-1.39c0-.57.03-1.07.1-1.49h1.28zM107.33 103.19c-1.45 1.63-3.07 2.92-4.88 3.88s-3.58 1.45-5.33 1.45-3.13-.38-4.33-1.13c-1.21-.75-2.14-1.64-2.8-2.66h-.18c-.6 2.29-1.72 4.73-3.34 7.32a37.722 37.722 0 0 1-5.83 7.14 33.563 33.563 0 0 1-7.45 5.42c-2.71 1.45-5.48 2.17-8.31 2.17-2.59 0-4.55-.75-5.87-2.26-1.32-1.5-1.99-3.52-1.99-6.05 0-1.32.33-2.86.99-4.61.66-1.75 1.58-3.51 2.75-5.28 1.17-1.77 2.56-3.52 4.16-5.24 1.6-1.72 3.33-3.25 5.19-4.61 1.86-1.36 3.84-2.44 5.92-3.25s4.17-1.22 6.28-1.22c2.47 0 4.38.72 5.74 2.17 1.36 1.45 2.09 3.31 2.21 5.6.12 1.39.77 2.66 1.94 3.84 1.17 1.17 2.78 1.76 4.83 1.76 1.81 0 3.51-.45 5.1-1.35 1.6-.9 3.09-2.08 4.47-3.52l.72.45zM61.9 120.63c0 1.57.3 2.8.9 3.7.6.9 1.5 1.36 2.71 1.36 1.62 0 3.23-.44 4.83-1.31 1.6-.87 3.13-2.02 4.61-3.43 1.48-1.41 2.84-3.03 4.11-4.83a41.9 41.9 0 0 0 3.3-5.6c.93-1.93 1.67-3.81 2.21-5.65.54-1.84.81-3.51.81-5.01 0-1.26-.32-2.33-.95-3.21-.63-.87-1.61-1.31-2.94-1.31-1.33 0-2.62.41-4.07 1.22-1.45.81-2.91 1.88-4.38 3.21a32.375 32.375 0 0 0-4.2 4.61 46.88 46.88 0 0 0-3.57 5.42c-1.05 1.87-1.88 3.73-2.48 5.6-.6 1.87-.9 3.61-.9 5.24z"/><path d="M90.8 126.05c1.33-2.23 2.84-4.67 4.56-7.32 1.72-2.65 3.46-5.34 5.24-8.09 1.77-2.74 3.52-5.45 5.24-8.13 1.72-2.68 3.27-5.19 4.65-7.54H116l-11.92 16.8.18.18c1.14-1.38 2.53-3.09 4.15-5.1 1.63-2.02 3.42-3.96 5.38-5.83s4.05-3.46 6.28-4.79c2.23-1.32 4.52-1.99 6.86-1.99 1.45 0 2.63.38 3.57 1.13.93.75 1.4 1.85 1.4 3.3 0 .84-.3 1.87-.9 3.07-.6 1.21-1.31 2.42-2.12 3.66-.81 1.24-1.64 2.42-2.48 3.57-.84 1.15-1.5 2.08-1.99 2.8l.18.18c1.26-1.81 2.78-3.73 4.56-5.78 1.77-2.05 3.67-3.96 5.69-5.74 2.02-1.78 4.09-3.25 6.23-4.43 2.14-1.17 4.2-1.76 6.19-1.76 1.74 0 3.06.42 3.93 1.26.87.84 1.31 2.02 1.31 3.52 0 1.03-.35 2.23-1.04 3.61-.69 1.39-1.57 2.85-2.62 4.38a93.939 93.939 0 0 1-3.39 4.65c-1.21 1.57-2.34 3.07-3.39 4.52-1.05 1.44-1.93 2.79-2.62 4.02-.69 1.24-1.04 2.27-1.04 3.12 0 .72.23 1.3.68 1.72.45.42 1.01.63 1.67.63 1.45 0 3.15-.57 5.1-1.72 1.96-1.14 4.07-2.74 6.32-4.79s4.62-4.5 7.09-7.36c2.47-2.86 4.97-6.01 7.5-9.44l.72.36c-2.47 3.37-4.94 6.52-7.41 9.44-2.47 2.92-4.86 5.46-7.18 7.63-2.32 2.17-4.55 3.87-6.68 5.1-2.14 1.23-4.11 1.85-5.92 1.85-1.81 0-3.25-.53-4.15-1.58-.9-1.05-1.36-2.36-1.36-3.93 0-1.14.35-2.42 1.04-3.84.69-1.41 1.56-2.88 2.62-4.38 1.05-1.5 2.18-3.01 3.39-4.52 1.2-1.5 2.33-2.95 3.39-4.34 1.05-1.38 1.93-2.65 2.62-3.79.69-1.14 1.04-2.08 1.04-2.8 0-.84-.23-1.43-.68-1.76-.45-.33-1.01-.5-1.67-.5-1.21 0-2.62.41-4.25 1.22s-3.33 1.96-5.1 3.43c-1.78 1.48-3.6 3.19-5.47 5.15a87.689 87.689 0 0 0-5.46 6.32 79.82 79.82 0 0 0-5.01 7.14 67.86 67.86 0 0 0-4.07 7.45h-5.78c1.69-3.01 3.51-6.02 5.46-9.03 1.96-3.01 3.78-5.8 5.46-8.36 1.69-2.56 3.1-4.79 4.25-6.68 1.14-1.9 1.72-3.3 1.72-4.2 0-1.63-.84-2.44-2.53-2.44-1.5 0-3.19.56-5.06 1.67-1.87 1.12-3.76 2.56-5.69 4.34a60.56 60.56 0 0 0-5.69 6.05c-1.87 2.26-3.63 4.53-5.29 6.82a99.657 99.657 0 0 0-4.38 6.55c-1.27 2.08-2.26 3.84-2.98 5.28h-5.87z"/><path d="M151.05 126.05c1.33-2.23 2.84-4.67 4.56-7.32 1.72-2.65 3.46-5.34 5.24-8.09 1.77-2.74 3.52-5.45 5.24-8.13 1.72-2.68 3.27-5.19 4.65-7.54h5.51l-11.92 16.8.18.18c1.14-1.38 2.53-3.09 4.15-5.1 1.63-2.02 3.42-3.96 5.38-5.83s4.05-3.46 6.28-4.79c2.23-1.32 4.52-1.99 6.86-1.99 1.45 0 2.63.38 3.57 1.13.93.75 1.4 1.85 1.4 3.3 0 .84-.3 1.87-.9 3.07-.6 1.21-1.31 2.42-2.12 3.66-.81 1.24-1.64 2.42-2.48 3.57-.84 1.15-1.5 2.08-1.99 2.8l.18.18c1.26-1.81 2.78-3.73 4.56-5.78 1.77-2.05 3.67-3.96 5.69-5.74 2.02-1.78 4.09-3.25 6.23-4.43 2.14-1.17 4.2-1.76 6.19-1.76 1.74 0 3.06.42 3.93 1.26.87.84 1.31 2.02 1.31 3.52 0 1.03-.35 2.23-1.04 3.61-.69 1.39-1.57 2.85-2.62 4.38a93.939 93.939 0 0 1-3.39 4.65c-1.21 1.57-2.34 3.07-3.39 4.52-1.05 1.44-1.93 2.79-2.62 4.02-.69 1.24-1.04 2.27-1.04 3.12 0 .72.23 1.3.68 1.72.45.42 1.01.63 1.67.63 1.45 0 3.15-.57 5.1-1.72 1.96-1.14 4.07-2.74 6.32-4.79s4.62-4.5 7.09-7.36c2.47-2.86 4.97-6.01 7.5-9.44l.72.36c-2.47 3.37-4.94 6.52-7.41 9.44-2.47 2.92-4.86 5.46-7.18 7.63-2.32 2.17-4.55 3.87-6.68 5.1-2.14 1.23-4.11 1.85-5.92 1.85-1.81 0-3.25-.53-4.15-1.58-.9-1.05-1.36-2.36-1.36-3.93 0-1.14.35-2.42 1.04-3.84.69-1.41 1.56-2.88 2.62-4.38 1.05-1.5 2.18-3.01 3.39-4.52 1.2-1.5 2.33-2.95 3.39-4.34 1.05-1.38 1.93-2.65 2.62-3.79.69-1.14 1.04-2.08 1.04-2.8 0-.84-.23-1.43-.68-1.76-.45-.33-1.01-.5-1.67-.5-1.21 0-2.62.41-4.25 1.22s-3.33 1.96-5.1 3.43c-1.78 1.48-3.6 3.19-5.47 5.15a87.689 87.689 0 0 0-5.46 6.32 79.82 79.82 0 0 0-5.01 7.14 67.86 67.86 0 0 0-4.07 7.45h-5.78c1.69-3.01 3.51-6.02 5.46-9.03 1.96-3.01 3.78-5.8 5.46-8.36 1.69-2.56 3.1-4.79 4.25-6.68 1.14-1.9 1.72-3.3 1.72-4.2 0-1.63-.84-2.44-2.53-2.44-1.5 0-3.19.56-5.06 1.67-1.87 1.12-3.76 2.56-5.69 4.34a60.56 60.56 0 0 0-5.69 6.05c-1.87 2.26-3.63 4.53-5.29 6.82a99.657 99.657 0 0 0-4.38 6.55c-1.27 2.08-2.26 3.84-2.98 5.28h-5.87z"/><path d="M237.5 94.97c-2.35 3.19-4.61 6.23-6.77 9.12-2.17 2.89-4.1 5.54-5.78 7.95-1.69 2.41-3.03 4.5-4.02 6.28-.99 1.78-1.49 3.18-1.49 4.2 0 .96.24 1.67.72 2.12.48.45 1.11.68 1.9.68 1.14 0 2.39-.36 3.75-1.08 1.36-.72 2.74-1.66 4.15-2.8 1.41-1.14 2.8-2.41 4.16-3.79 1.36-1.38 2.62-2.75 3.79-4.11 1.18-1.36 2.2-2.6 3.07-3.75.87-1.14 1.52-2.05 1.94-2.71l7.95-12.1h6.23c-3.25 4.46-6.01 8.23-8.27 11.34-2.26 3.1-4.1 5.74-5.51 7.91-1.42 2.17-2.42 3.93-3.03 5.28-.61 1.35-.9 2.54-.9 3.57 0 .72.21 1.34.63 1.85.42.51 1.02.77 1.81.77 1.2 0 2.59-.44 4.16-1.31 1.56-.87 3.19-2.02 4.88-3.43 1.69-1.41 3.36-3.01 5.01-4.79 1.66-1.78 3.22-3.54 4.7-5.28 1.48-1.75 2.82-3.39 4.02-4.92 1.2-1.54 2.14-2.78 2.8-3.75l.9.27c-.72 1.02-1.69 2.33-2.89 3.93-1.2 1.6-2.56 3.28-4.06 5.06-1.51 1.78-3.1 3.58-4.79 5.42a49.405 49.405 0 0 1-5.19 4.92c-1.78 1.44-3.52 2.64-5.24 3.57-1.72.93-3.33 1.4-4.83 1.4-1.69 0-3.03-.47-4.02-1.4-.99-.93-1.49-2.18-1.49-3.75 0-1.2.2-2.36.59-3.48.39-1.11.68-1.82.86-2.12l-.18-.18a64.833 64.833 0 0 1-3.97 4.15 38.753 38.753 0 0 1-4.16 3.48c-1.38.99-2.79 1.79-4.2 2.39-1.42.6-2.82.9-4.2.9-1.93 0-3.31-.44-4.16-1.31-.85-.87-1.26-1.91-1.26-3.12 0-1.5.41-3.13 1.22-4.88s1.94-3.7 3.39-5.87c1.45-2.17 3.18-4.61 5.19-7.32 2.02-2.71 4.23-5.81 6.64-9.3h5.96z"/><path d="M276.52 94.97 264.6 111.5l.18.18c1.26-1.5 2.74-3.27 4.43-5.28a65.25 65.25 0 0 1 5.42-5.74c1.93-1.81 3.93-3.33 6.01-4.56 2.08-1.23 4.14-1.85 6.19-1.85 1.81 0 3.21.5 4.2 1.49.99.99 1.49 2.27 1.49 3.84 0 .96-.35 2.11-1.04 3.43-.69 1.33-1.55 2.74-2.58 4.25a97.687 97.687 0 0 1-3.34 4.61c-1.2 1.57-2.32 3.06-3.34 4.47a50.852 50.852 0 0 0-2.58 3.89c-.69 1.17-1.04 2.15-1.04 2.94 0 1.69.84 2.53 2.53 2.53 1.93 0 3.97-.65 6.14-1.94 2.17-1.29 4.76-3.48 7.77-6.55 1.21-1.2 2.42-2.53 3.66-3.97 1.24-1.45 2.42-2.88 3.57-4.29 1.15-1.41 2.18-2.76 3.12-4.02.93-1.27 1.67-2.32 2.21-3.16l.63.36c-1.21 1.81-2.75 3.96-4.65 6.46-1.9 2.5-3.96 4.95-6.19 7.36a89.055 89.055 0 0 1-4.07 4.16 38.753 38.753 0 0 1-4.16 3.48c-1.39.99-2.75 1.78-4.11 2.35-1.36.57-2.7.86-4.02.86-1.75 0-3.19-.48-4.33-1.45-1.14-.96-1.72-2.29-1.72-3.97 0-1.81.72-3.78 2.17-5.92s3.04-4.29 4.79-6.46c1.74-2.17 3.34-4.25 4.79-6.23 1.45-1.98 2.17-3.73 2.17-5.24 0-.72-.24-1.26-.72-1.63-.48-.36-1.12-.54-1.9-.54-1.5 0-3.19.56-5.06 1.67-1.87 1.12-3.78 2.59-5.74 4.43a80.858 80.858 0 0 0-5.87 6.14c-1.96 2.26-3.78 4.52-5.46 6.77a111.58 111.58 0 0 0-4.52 6.5c-1.33 2.08-2.32 3.81-2.98 5.19h-5.6c1.57-2.65 3.24-5.34 5.01-8.09 1.78-2.74 3.54-5.45 5.29-8.13 1.74-2.68 3.42-5.27 5.01-7.77 1.6-2.5 3.03-4.77 4.29-6.82l5.87-.27z"/><path d="M317.71 94.97c-3.31 4.76-6.11 8.76-8.4 12.01s-4.14 5.96-5.56 8.13c-1.42 2.17-2.44 3.88-3.07 5.15-.63 1.27-.95 2.29-.95 3.07 0 1.57.63 2.35 1.9 2.35s2.6-.44 4.2-1.31c1.6-.87 3.27-2 5.01-3.39 1.74-1.38 3.49-2.95 5.24-4.7 1.74-1.75 3.39-3.48 4.92-5.19 1.54-1.72 2.89-3.37 4.07-4.97 1.17-1.6 2.03-2.9 2.57-3.93l.72.45c-.72 1.21-1.7 2.65-2.94 4.34a72.032 72.032 0 0 1-4.2 5.19c-1.57 1.78-3.22 3.54-4.97 5.28a54.388 54.388 0 0 1-5.33 4.7c-1.81 1.39-3.57 2.5-5.29 3.34-1.72.84-3.3 1.26-4.74 1.26-1.63 0-2.83-.45-3.61-1.36-.78-.91-1.17-1.9-1.17-2.98 0-1.26.29-2.6.86-4.02.57-1.41 1.49-3.15 2.76-5.19 1.26-2.05 2.9-4.53 4.92-7.45s4.44-6.52 7.27-10.79h5.78zm5.24-16.8c.84 0 1.53.29 2.08.86.54.57.81 1.28.81 2.12 0 .84-.27 1.55-.81 2.12-.54.57-1.24.86-2.08.86-.84 0-1.54-.28-2.08-.86-.54-.57-.81-1.28-.81-2.12 0-.84.27-1.55.81-2.12.54-.57 1.23-.86 2.08-.86z"/><path d="M357.91 103.37c-1.39 2.23-3.21 4.62-5.46 7.18a69.39 69.39 0 0 1-7.36 7.18c-3.25 2.71-6.5 4.89-9.76 6.55-3.25 1.66-6.44 2.48-9.57 2.48-2.23 0-4.1-.59-5.6-1.76-1.51-1.17-2.26-2.9-2.26-5.19 0-2.89.83-5.84 2.48-8.85 1.66-3.01 3.73-5.76 6.23-8.27 2.5-2.5 5.24-4.53 8.22-6.1 2.98-1.57 5.8-2.35 8.45-2.35 1.75 0 3.27.32 4.56.95 1.29.63 1.94 1.73 1.94 3.3 0 .72-.2 1.33-.59 1.81-.39.48-.87.87-1.45 1.17-.57.3-1.21.53-1.9.68-.69.15-1.31.26-1.85.32.24-.6.45-1.22.63-1.85.18-.63.27-1.28.27-1.94 0-2.23-1.06-3.34-3.16-3.34-1.57 0-3.42.77-5.56 2.3-2.14 1.54-4.15 3.48-6.05 5.83-1.9 2.35-3.51 4.94-4.83 7.77-1.33 2.83-1.99 5.57-1.99 8.22 0 1.63.37 3.01 1.13 4.15.75 1.15 1.91 1.72 3.48 1.72 2.11 0 4.53-.69 7.27-2.08 2.74-1.38 5.4-3.1 7.99-5.15 2.71-2.11 5.31-4.53 7.81-7.27 2.5-2.74 4.59-5.4 6.28-7.99l.63.54z"/><path d="M381.84 94.97h5.87c-2.23 3.13-4.37 6.17-6.42 9.12a253.14 253.14 0 0 0-5.46 8.17c-1.6 2.5-2.88 4.7-3.84 6.6-.96 1.9-1.45 3.39-1.45 4.47 0 1.57.81 2.35 2.44 2.35 1.26 0 2.87-.62 4.83-1.85s4.08-2.94 6.37-5.1c2.29-2.17 4.64-4.7 7.04-7.59 2.41-2.89 4.7-5.96 6.87-9.21l.54.18c-1.62 2.47-3.54 5.13-5.74 7.99-2.2 2.86-4.5 5.53-6.91 7.99-2.41 2.47-4.82 4.53-7.23 6.19-2.41 1.66-4.67 2.48-6.78 2.48-1.75 0-3.03-.44-3.84-1.31-.81-.87-1.22-1.91-1.22-3.12 0-.84.13-1.67.41-2.48.27-.81.56-1.64.86-2.48l-.18-.09c-.78.84-1.76 1.82-2.94 2.94a36.144 36.144 0 0 1-3.79 3.12c-1.36.96-2.76 1.78-4.2 2.44-1.45.66-2.83.99-4.16.99-2.23 0-3.79-.69-4.7-2.08-.91-1.39-1.36-2.95-1.36-4.7 0-2.47.78-5.19 2.35-8.17 1.57-2.98 3.55-5.78 5.96-8.4s5.03-4.8 7.86-6.55 5.51-2.62 8.04-2.62c1.2 0 2.26.17 3.16.5.9.33 1.65.78 2.26 1.36.6.57 1.07 1.22 1.4 1.94.33.72.59 1.48.77 2.26h.18l2.98-5.33zm-29.54 25.3c0 1.39.28 2.46.86 3.21.57.75 1.37 1.13 2.39 1.13s2.23-.37 3.61-1.13c1.38-.75 2.83-1.76 4.33-3.03 1.5-1.26 2.99-2.72 4.47-4.38 1.48-1.66 2.78-3.42 3.93-5.28 1.14-1.87 2.08-3.76 2.8-5.69.72-1.93 1.08-3.76 1.08-5.51 0-1.38-.39-2.44-1.17-3.16-.78-.72-1.75-1.08-2.89-1.08-1.81 0-3.83.78-6.05 2.35-2.23 1.57-4.34 3.57-6.32 6.01a37.054 37.054 0 0 0-5.01 8.09c-1.36 2.95-2.03 5.78-2.03 8.49z"/><path d="m413.73 84.5-7.14 10.48h11.93l-.54 1.08h-12.1c-2.41 3.92-4.56 7.3-6.46 10.16-1.9 2.86-3.49 5.33-4.79 7.41-1.3 2.08-2.27 3.83-2.94 5.24-.66 1.42-.99 2.66-.99 3.75 0 1.15.39 1.94 1.18 2.39.78.45 1.68.68 2.71.68 2.17 0 4.56-.83 7.18-2.48s5.22-3.69 7.81-6.1c2.59-2.41 5.06-4.97 7.41-7.68 2.35-2.71 4.33-5.15 5.96-7.32l.54.36c-2.05 2.59-4.29 5.31-6.73 8.17a89.82 89.82 0 0 1-7.54 7.86c-2.59 2.38-5.19 4.35-7.81 5.92-2.62 1.57-5.1 2.35-7.45 2.35-1.87 0-3.48-.57-4.83-1.72s-2.03-2.74-2.03-4.79c0-1.38.39-2.94 1.17-4.65.78-1.72 1.81-3.57 3.07-5.56 1.27-1.99 2.7-4.15 4.29-6.5 1.59-2.35 3.23-4.85 4.92-7.5h-4.88l.54-1.08h5.06l7.04-10.48h5.42z"/><path d="M463.5 103.19c-1.45 1.63-3.07 2.92-4.88 3.88s-3.58 1.45-5.33 1.45-3.13-.38-4.33-1.13c-1.21-.75-2.14-1.64-2.8-2.66h-.18c-.6 2.29-1.72 4.73-3.34 7.32a37.722 37.722 0 0 1-5.83 7.14 33.563 33.563 0 0 1-7.45 5.42c-2.71 1.45-5.48 2.17-8.31 2.17-2.59 0-4.55-.75-5.87-2.26-1.32-1.5-1.99-3.52-1.99-6.05 0-1.32.33-2.86.99-4.61.66-1.75 1.58-3.51 2.75-5.28 1.17-1.78 2.56-3.52 4.16-5.24 1.6-1.72 3.33-3.25 5.19-4.61 1.86-1.36 3.84-2.44 5.92-3.25s4.17-1.22 6.28-1.22c2.47 0 4.38.72 5.74 2.17 1.36 1.45 2.09 3.31 2.21 5.6.12 1.39.77 2.66 1.94 3.84 1.17 1.17 2.78 1.76 4.83 1.76 1.81 0 3.51-.45 5.1-1.35 1.6-.9 3.09-2.08 4.47-3.52l.72.45zm-45.44 17.44c0 1.57.3 2.8.9 3.7.6.9 1.5 1.36 2.71 1.36 1.62 0 3.23-.44 4.83-1.31 1.6-.87 3.13-2.02 4.61-3.43 1.48-1.41 2.84-3.03 4.11-4.83a41.9 41.9 0 0 0 3.3-5.6c.93-1.93 1.67-3.81 2.21-5.65.54-1.84.81-3.51.81-5.01 0-1.26-.32-2.33-.95-3.21-.63-.87-1.61-1.31-2.94-1.31-1.33 0-2.62.41-4.07 1.22-1.45.81-2.91 1.88-4.38 3.21a32.375 32.375 0 0 0-4.2 4.61 46.88 46.88 0 0 0-3.57 5.42c-1.05 1.87-1.88 3.73-2.48 5.6-.6 1.87-.9 3.61-.9 5.24z"/><path d="m472.26 94.97-11.47 16.71.18.18c.84-1.02 1.91-2.21 3.21-3.57a94.24 94.24 0 0 1 4.25-4.15c1.54-1.41 3.15-2.81 4.83-4.2a60.12 60.12 0 0 1 4.97-3.7c.3-.6.63-1.08.99-1.45.36-.36 1.09-.54 2.17-.54.66 0 1.25.01 1.76.05.51.03 1.04.08 1.58.13-1.02 1.03-2.02 2.27-2.98 3.75a8.633 8.633 0 0 0-1.45 4.83c0 1.39.35 2.47 1.04 3.25.69.78 1.55 1.17 2.57 1.17.9 0 1.79-.18 2.67-.54.87-.36 1.7-.81 2.48-1.36.78-.54 1.53-1.11 2.26-1.72.72-.6 1.36-1.14 1.9-1.63l.54.36c-.6.6-1.29 1.25-2.08 1.94-.78.69-1.63 1.34-2.53 1.94-.9.6-1.87 1.1-2.89 1.49-1.02.39-2.08.59-3.16.59-1.93 0-3.48-.59-4.65-1.76-1.17-1.17-1.76-2.81-1.76-4.92 0-1.45.33-2.74.99-3.88l-.18-.18c-2.47 1.69-5.18 3.9-8.13 6.64-2.95 2.74-6.08 5.98-9.39 9.71-1.21 1.33-2.45 3.07-3.75 5.24-1.29 2.17-2.42 4.4-3.39 6.68h-5.87c3.25-5.18 6.5-10.33 9.76-15.45 3.25-5.12 6.59-10.33 10.03-15.63h5.51zM51.69 13.61V1.95h-3.21v3.97h-1.92V.01h12.59v5.91h-1.92V1.95h-3.2v11.66h2.02v1.95h-6.36v-1.95h1.99zM63.4 13.61V1.95h-1.77V0h5.95v1.95h-1.84V6.4h6.76V1.95h-1.82V0h5.95v1.95h-1.78v11.66h1.78v1.95h-5.95v-1.95h1.82V8.35h-6.76v5.26h1.84v1.95h-5.95v-1.95zM81.46 13.61V1.95h-2.01V0h12.92v4.68h-1.92V1.94h-6.64v4.62h5.78v1.95h-5.78v5.08h6.64v-2.83h1.92v4.77H79.45v-1.95h2.01zM124.94 154.81v-9.48h-1.63v-1.58h5.17v1.58h-1.55v9.48h3.87v-4.3h1.78v5.88h-9.27v-1.58zM134.97 150.02c0-1.84.6-3.37 1.8-4.61 1.2-1.24 2.76-1.85 4.69-1.85 1.93 0 3.53.62 4.75 1.85 1.22 1.24 1.84 2.78 1.84 4.64 0 1.86-.62 3.46-1.87 4.7-1.24 1.23-2.83 1.85-4.75 1.85-1.22 0-2.35-.29-3.37-.88-1.03-.58-1.8-1.4-2.31-2.44a7.33 7.33 0 0 1-.77-3.26zm2.08 0c0 1.39.41 2.55 1.22 3.49.81.94 1.88 1.41 3.2 1.41 1.32 0 2.38-.48 3.23-1.44.84-.96 1.26-2.11 1.26-3.44s-.43-2.48-1.29-3.41c-.86-.93-1.93-1.39-3.23-1.39s-2.34.46-3.16 1.37c-.82.92-1.23 2.05-1.23 3.42zM161.87 151.25l1.64.92c-.37 1.4-1.11 2.49-2.24 3.27-1.12.77-2.42 1.16-3.87 1.16-1.92 0-3.45-.62-4.61-1.86-1.16-1.24-1.73-2.78-1.73-4.61 0-2.01.58-3.6 1.75-4.79 1.16-1.19 2.68-1.78 4.55-1.78 1.65 0 3.04.45 4.17 1.35v-1.15h1.64v4.06h-1.64c-.36-.83-.92-1.46-1.68-1.91-.76-.45-1.55-.68-2.39-.68-1.26 0-2.3.46-3.11 1.36-.81.91-1.21 2.06-1.21 3.44s.43 2.58 1.3 3.49c.87.9 1.89 1.36 3.08 1.36.97 0 1.86-.32 2.66-.94.8-.62 1.36-1.52 1.69-2.68zM174.06 151.95h-4.55l-.97 2.86h1.54v1.58h-4.98v-1.58h1.53l3.45-9.63h-1.53v-1.43h6.46v1.43h-1.58l3.54 9.63h1.41v1.58h-4.95v-1.58H175Zm-.47-1.48-1.68-5.29h-.17l-1.75 5.29zM181.44 154.81v-9.48h-1.63v-1.58h5.17v1.58h-1.55v9.48h3.87v-4.3h1.78v5.88h-9.27v-1.58zM198.39 154.81v-9.48h-1.81v-1.58h4.32l5.54 9.83v-8.25h-1.79v-1.58h5.19v1.58h-1.86v11.19h-1.96l-6.07-10.79v9.08h1.81v1.58h-5.18v-1.58zM213.33 154.81v-9.48h-1.63v-1.58h10.5v3.81h-1.56v-2.22h-5.4v3.76h4.7v1.58h-4.7v4.13h5.4v-2.3h1.56v3.88h-10.5v-1.58zM228.86 156.52l-3.22-11.19h-1.52v-1.58h4.84v1.58h-1.52l2.39 8.27 2.3-8.27h-1.5v-1.58h5.81v1.58h-1.48l2.31 8.27 2.35-8.27h-1.5v-1.58h4.65v1.58h-1.49l-3.16 11.19h-1.81l-2.84-10-2.83 10h-1.77zM244.68 156.4v-4.59h1.58v1.12c.76 1.38 1.75 2.07 2.97 2.07.62 0 1.15-.19 1.58-.57.43-.38.64-.88.64-1.5s-.18-1.03-.53-1.29c-.35-.26-1.01-.53-1.99-.79-1.13-.3-1.97-.59-2.52-.86s-.98-.65-1.3-1.15c-.33-.5-.49-1.09-.49-1.78 0-1.06.35-1.91 1.06-2.54.71-.64 1.59-.95 2.66-.95 1.01 0 1.95.33 2.82.98v-.85h1.54v3.83h-1.54v-.88c-.65-.98-1.54-1.47-2.68-1.47-.69 0-1.22.16-1.59.48-.37.32-.56.7-.56 1.14 0 .34.09.64.28.9.19.26.42.45.72.57.29.12.86.29 1.72.51 1.11.29 1.92.56 2.42.81s.94.67 1.3 1.26c.36.59.55 1.26.55 2.03 0 1.08-.38 1.97-1.14 2.67-.76.7-1.7 1.05-2.82 1.05-1.12 0-2.19-.41-3.11-1.24v1.04h-1.58zM261.81 156.4v-4.59h1.58v1.12c.76 1.38 1.75 2.07 2.97 2.07.62 0 1.15-.19 1.58-.57.43-.38.64-.88.64-1.5s-.18-1.03-.53-1.29c-.35-.26-1.01-.53-1.99-.79-1.13-.3-1.97-.59-2.52-.86s-.98-.65-1.3-1.15c-.33-.5-.49-1.09-.49-1.78 0-1.06.35-1.91 1.06-2.54.71-.64 1.59-.95 2.66-.95 1.01 0 1.95.33 2.82.98v-.85h1.54v3.83h-1.54v-.88c-.65-.98-1.54-1.47-2.68-1.47-.69 0-1.22.16-1.59.48-.37.32-.56.7-.56 1.14 0 .34.09.64.28.9.19.26.42.45.72.57.29.12.86.29 1.72.51 1.11.29 1.92.56 2.42.81s.94.67 1.3 1.26c.36.59.55 1.26.55 2.03 0 1.08-.38 1.97-1.14 2.67-.76.7-1.7 1.05-2.82 1.05-1.12 0-2.19-.41-3.11-1.24v1.04h-1.58zM274.3 154.81v-9.48h-1.36v-1.58h4.63v1.58h-1.36v9.48h1.36v1.58h-4.63v-1.58zM281.37 154.81v-9.48h-1.81v-1.58h4.32l5.54 9.83v-8.25h-1.79v-1.58h5.19v1.58h-1.86v11.19H289l-6.07-10.79v9.08h1.81v1.58h-5.18v-1.58zM305.76 151.25l1.64.92c-.37 1.4-1.11 2.49-2.24 3.27-1.12.77-2.42 1.16-3.87 1.16-1.92 0-3.45-.62-4.61-1.86-1.16-1.24-1.73-2.78-1.73-4.61 0-2.01.58-3.6 1.75-4.79 1.16-1.19 2.68-1.78 4.55-1.78 1.65 0 3.04.45 4.17 1.35v-1.15h1.64v4.06h-1.64c-.36-.83-.92-1.46-1.68-1.91-.76-.45-1.55-.68-2.39-.68-1.26 0-2.3.46-3.11 1.36-.81.91-1.21 2.06-1.21 3.44s.43 2.58 1.3 3.49c.87.9 1.89 1.36 3.08 1.36.97 0 1.86-.32 2.66-.94.8-.62 1.36-1.52 1.69-2.68zM311.75 154.81v-9.48h-1.63v-1.58h10.5v3.81h-1.56v-2.22h-5.4v3.76h4.7v1.58h-4.7v4.13h5.4v-2.3h1.56v3.88h-10.5v-1.58zM332.9 154.86v-9.57h-1.73v-1.52h3.45v11.09h1.64v1.54h-5.1v-1.54h1.73zM340.83 152.66h1.54c.09.72.34 1.31.76 1.76.42.46.92.68 1.51.68.81 0 1.44-.42 1.89-1.26.45-.84.68-1.99.69-3.44-.85.93-1.84 1.4-2.96 1.4-1 0-1.84-.36-2.51-1.08-.67-.72-1.01-1.67-1.01-2.84s.34-2.21 1.02-3.05c.68-.84 1.61-1.27 2.79-1.27 1.32 0 2.37.54 3.16 1.62s1.18 2.69 1.18 4.82c0 2.13-.38 3.64-1.14 4.82-.76 1.18-1.86 1.78-3.3 1.78-1.12 0-1.99-.37-2.61-1.11-.62-.74-.95-1.68-.99-2.82zm6.3-4.17c-.26-2.29-1.1-3.43-2.51-3.43-.7 0-1.25.26-1.66.78-.41.52-.61 1.15-.61 1.91 0 .68.18 1.25.54 1.71.36.46.88.69 1.57.69.9 0 1.79-.55 2.67-1.66zM352.22 152.66h1.54c.09.72.34 1.31.76 1.76.42.46.92.68 1.51.68.81 0 1.44-.42 1.89-1.26.45-.84.68-1.99.69-3.44-.85.93-1.84 1.4-2.96 1.4-1 0-1.84-.36-2.51-1.08-.67-.72-1.01-1.67-1.01-2.84s.34-2.21 1.02-3.05c.68-.84 1.61-1.27 2.79-1.27 1.32 0 2.37.54 3.16 1.62s1.18 2.69 1.18 4.82c0 2.13-.38 3.64-1.14 4.82-.76 1.18-1.86 1.78-3.3 1.78-1.12 0-1.99-.37-2.61-1.11-.62-.74-.95-1.68-.99-2.82zm6.3-4.17c-.26-2.29-1.1-3.43-2.51-3.43-.7 0-1.25.26-1.66.78-.41.52-.61 1.15-.61 1.91 0 .68.18 1.25.54 1.71.36.46.88.69 1.57.69.9 0 1.79-.55 2.67-1.66zM371.61 151.88l-.12 4.52h-8.08c0-.87.16-1.71.47-2.5.31-.79.75-1.49 1.32-2.08.57-.6 1.43-1.32 2.6-2.16.73-.54 1.23-.99 1.49-1.35.26-.36.39-.78.39-1.26 0-.59-.18-1.07-.55-1.44-.37-.37-.88-.56-1.53-.56-.76 0-1.31.21-1.66.64-.35.42-.53 1.12-.53 2.09 0 .24 0 .47.02.69h-1.68v-.53c0-1.37.32-2.44.97-3.21.65-.77 1.6-1.16 2.86-1.16 1.26 0 2.24.33 2.91.99.67.66 1.01 1.47 1.01 2.44 0 .81-.22 1.49-.66 2.06-.44.57-1.29 1.29-2.54 2.17-1.21.86-2.01 1.56-2.38 2.1-.38.54-.6 1.02-.66 1.44h4.76l.07-2.87h1.54z"/></svg>