<?xml version="1.0" encoding="UTF-8"?><svg id="Mobile_Leaderboard_320x50" xmlns="http://www.w3.org/2000/svg" viewBox="0 0 314.29 61.7"><defs><style>.cls-1{stroke-miterlimit:10;}.cls-1,.cls-2{fill:#fff;stroke:#fff;}</style></defs><path class="cls-2" d="M78.25,26.65V4.24h-3.87V.5h24.84v9h-3.7v-5.27h-12.76v8.9h11.11v3.74h-11.11v9.78h12.76v-5.44h3.7v9.18h-24.84v-3.74h3.87Z"/><path class="cls-1" d="M119.41,18.24h-8.43l-1.79,5.3h2.84v2.93h-9.22v-2.93h2.83l6.39-17.83h-2.83v-2.64h11.96v2.64h-2.92l6.55,17.83h2.62v2.93h-9.17v-2.93h2.91l-1.74-5.3ZM118.52,15.5l-3.11-9.79h-.32l-3.24,9.79h6.67Z"/><path class="cls-1" d="M130.91,26.47v-8.49h2.93v2.07c1.4,2.55,3.23,3.82,5.5,3.82,1.15,0,2.13-.35,2.93-1.06s1.19-1.63,1.19-2.77-.33-1.91-.98-2.4-1.88-.97-3.68-1.45c-2.1-.56-3.65-1.09-4.66-1.59s-1.81-1.21-2.41-2.14-.9-2.02-.9-3.29c0-1.96.65-3.53,1.96-4.7s2.95-1.76,4.92-1.76,3.61.61,5.21,1.82v-1.56h2.86v7.1h-2.86v-1.63c-1.2-1.81-2.85-2.71-4.96-2.71-1.28,0-2.26.29-2.94.88s-1.03,1.29-1.03,2.11c0,.63.17,1.18.52,1.66s.79.83,1.33,1.05,1.6.54,3.18.94c2.06.54,3.56,1.04,4.49,1.5.93.47,1.73,1.24,2.4,2.33s1.01,2.34,1.01,3.75c0,2-.7,3.64-2.11,4.95-1.41,1.3-3.15,1.95-5.22,1.95s-4.05-.77-5.75-2.3v1.93h-2.93Z"/><path class="cls-1" d="M158.7,23.54V6h-4.83v5.97h-2.89V3.07h18.95v8.9h-2.89v-5.97h-4.81v17.54h3.04v2.93h-9.57v-2.93h2.99Z"/><path class="cls-1" d="M176.49,23.54V6h-2.96v-2.93h18.15v7.05h-2.89v-4.12h-8.76v6.93h7.55v2.93h-7.55v7.69h2.99v2.93h-9.49v-2.93h2.96Z"/><path class="cls-1" d="M196.21,14.66c0-3.4,1.11-6.24,3.33-8.53s5.11-3.43,8.68-3.43,6.53,1.14,8.8,3.43,3.4,5.15,3.4,8.59-1.15,6.4-3.46,8.69c-2.3,2.28-5.23,3.42-8.79,3.42-2.26,0-4.35-.54-6.25-1.62-1.9-1.08-3.33-2.59-4.28-4.52s-1.43-3.94-1.43-6.03ZM200.06,14.68c0,2.57.75,4.72,2.25,6.46s3.48,2.61,5.92,2.61,4.41-.89,5.97-2.67c1.56-1.78,2.34-3.9,2.34-6.37s-.79-4.59-2.38-6.31c-1.59-1.72-3.58-2.58-5.98-2.58s-4.34.85-5.85,2.54-2.27,3.8-2.27,6.32Z"/><path class="cls-1" d="M228.34,23.54V6h-3.21v-2.93h9.5c1.98,0,3.56.15,4.73.46s2.13.96,2.89,1.95,1.14,2.23,1.14,3.71c0,3.09-1.61,5.04-4.82,5.84l4.13,8.51h2.86v2.93h-5.07l-5.33-10.93h-3.3v8.01h2.99v2.93h-9.74v-2.93h3.21ZM231.87,12.61h2.76c1.33,0,2.32-.09,2.95-.26s1.15-.53,1.56-1.06.61-1.25.61-2.14c0-.76-.2-1.41-.61-1.93s-.91-.86-1.51-1-1.52-.21-2.75-.21h-2.99v6.61Z"/><path class="cls-1" d="M251.69,23.54V6h-3.18v-2.93h9.05c2.5,0,4.43.13,5.78.39,1.35.26,2.66.84,3.93,1.75,1.27.91,2.28,2.16,3.04,3.74s1.14,3.39,1.14,5.42c0,2.31-.36,4.32-1.09,6.02s-1.68,2.98-2.87,3.82c-1.18.84-2.59,1.43-4.22,1.76-1.63.33-3.71.5-6.23.5h-8.51v-2.93h3.18ZM255.23,23.54h1.85c2.06,0,3.7-.13,4.9-.39,1.21-.26,2.22-.7,3.05-1.32s1.5-1.56,2.02-2.82.77-2.74.77-4.44c0-2.03-.42-3.75-1.27-5.16s-1.93-2.33-3.25-2.77c-1.32-.43-3.34-.65-6.08-.65h-2v17.54Z"/><path class="cls-2" d="M72.58,28.63c-.04.23-.06.46-.06.68v.68c0,.8.14,1.46.43,1.99.29.53.65.96,1.11,1.28.46.32.98.55,1.57.68.59.13,1.19.2,1.79.2,1.03,0,2.07-.26,3.13-.77,1.06-.51,2.03-1.21,2.9-2.11.87-.89,1.58-1.93,2.13-3.1.55-1.18.83-2.41.83-3.7,0-1.59-.44-2.67-1.31-3.22-.87-.55-2.05-.83-3.53-.83-1.71,0-3.59.41-5.64,1.22s-4.13,1.95-6.24,3.39c-2.11,1.44-4.14,3.15-6.09,5.13-1.96,1.97-3.7,4.12-5.24,6.43-1.54,2.32-2.76,4.75-3.67,7.29-.91,2.54-1.37,5.13-1.37,7.74,0,1.06.13,2.13.4,3.19.26,1.06.68,2.02,1.25,2.88.57.85,1.31,1.54,2.22,2.05.91.51,2.01.77,3.3.77,1.86,0,3.63-.43,5.32-1.28,1.69-.85,3.17-1.96,4.44-3.33,1.27-1.37,2.29-2.89,3.05-4.58.76-1.69,1.14-3.37,1.14-5.04,0-1.52-.45-2.68-1.34-3.47-.89-.8-2.1-1.2-3.62-1.2l-.06-.68c2.39,0,4.17.48,5.32,1.42,1.16.95,1.74,2.56,1.74,4.84,0,1.33-.35,2.81-1.05,4.44-.7,1.63-1.74,3.16-3.1,4.58-1.37,1.42-3.07,2.61-5.1,3.56-2.03.95-4.36,1.42-6.98,1.42-1.97,0-3.63-.34-4.98-1.02-1.35-.68-2.44-1.54-3.27-2.56-.84-1.02-1.43-2.14-1.79-3.33-.36-1.2-.54-2.31-.54-3.33,0-2.39.51-4.83,1.54-7.32,1.02-2.49,2.38-4.89,4.07-7.2,1.69-2.32,3.63-4.49,5.84-6.52,2.2-2.03,4.47-3.8,6.8-5.3,2.34-1.5,4.67-2.68,7.01-3.56,2.33-.87,4.47-1.31,6.41-1.31,2.39,0,4.18.49,5.35,1.48,1.18.99,1.77,2.43,1.77,4.33,0,1.33-.31,2.56-.94,3.7-.63,1.14-1.46,2.12-2.51,2.93-1.05.82-2.23,1.46-3.56,1.94-1.33.47-2.7.71-4.1.71-1.48,0-2.75-.35-3.82-1.05-1.06-.7-1.63-1.91-1.71-3.62v-.74c0-.3.02-.57.06-.8h.68Z"/><path class="cls-1" d="M107.04,43.48c-.77.87-1.64,1.56-2.61,2.08-.96.52-1.92.77-2.85.77s-1.67-.2-2.32-.6c-.64-.4-1.14-.88-1.5-1.42h-.1c-.32,1.22-.92,2.53-1.79,3.91-.87,1.38-1.91,2.65-3.11,3.81-1.21,1.16-2.53,2.12-3.98,2.9-1.45.77-2.93,1.16-4.44,1.16-1.38,0-2.43-.4-3.14-1.21-.71-.8-1.06-1.88-1.06-3.23,0-.71.18-1.53.53-2.46.35-.93.84-1.87,1.47-2.82s1.37-1.88,2.22-2.8c.85-.92,1.78-1.74,2.78-2.46,1-.72,2.05-1.3,3.16-1.74,1.11-.43,2.23-.65,3.35-.65,1.32,0,2.34.39,3.06,1.16.72.77,1.12,1.77,1.18,2.99.06.74.41,1.42,1.04,2.05.63.63,1.49.94,2.58.94.96,0,1.87-.24,2.73-.72.85-.48,1.65-1.11,2.39-1.88l.39.24ZM82.76,52.8c0,.84.16,1.5.48,1.98.32.48.8.72,1.45.72.87,0,1.73-.23,2.58-.7.85-.47,1.67-1.08,2.46-1.83.79-.76,1.52-1.62,2.2-2.58.68-.97,1.26-1.96,1.76-2.99.5-1.03.89-2.03,1.18-3.02.29-.98.43-1.87.43-2.68,0-.68-.17-1.25-.51-1.71-.34-.47-.86-.7-1.57-.7s-1.4.22-2.17.65c-.77.43-1.55,1.01-2.34,1.71-.79.71-1.54,1.53-2.24,2.46-.71.93-1.34,1.9-1.91,2.9-.56,1-1.01,2-1.33,2.99-.32,1-.48,1.93-.48,2.8Z"/><path class="cls-1" d="M98.2,55.69c.71-1.19,1.52-2.49,2.44-3.91.92-1.42,1.85-2.85,2.8-4.32.95-1.46,1.88-2.91,2.8-4.34.92-1.43,1.75-2.78,2.48-4.03h2.94l-6.37,8.98.1.1c.61-.74,1.35-1.65,2.22-2.73.87-1.08,1.83-2.12,2.87-3.11,1.04-1,2.16-1.85,3.35-2.56,1.19-.71,2.41-1.06,3.67-1.06.77,0,1.41.2,1.91.6.5.4.75.99.75,1.76,0,.45-.16,1-.48,1.64-.32.64-.7,1.3-1.13,1.95-.43.66-.88,1.3-1.33,1.91-.45.61-.8,1.11-1.06,1.5l.1.1c.68-.96,1.49-1.99,2.44-3.09.95-1.09,1.96-2.12,3.04-3.06,1.08-.95,2.19-1.74,3.33-2.37,1.14-.63,2.24-.94,3.31-.94.93,0,1.63.23,2.1.68.47.45.7,1.08.7,1.88,0,.55-.19,1.19-.56,1.93-.37.74-.84,1.52-1.4,2.34-.56.82-1.17,1.65-1.81,2.49-.64.84-1.25,1.64-1.81,2.41-.56.77-1.03,1.49-1.4,2.15-.37.66-.56,1.21-.56,1.66,0,.39.12.69.36.92.24.23.54.34.89.34.77,0,1.68-.31,2.73-.92,1.05-.61,2.17-1.46,3.38-2.56,1.21-1.09,2.47-2.41,3.79-3.93,1.32-1.53,2.65-3.21,4.01-5.04l.38.19c-1.32,1.8-2.64,3.48-3.96,5.04-1.32,1.56-2.6,2.92-3.84,4.08-1.24,1.16-2.43,2.07-3.57,2.73-1.14.66-2.2.99-3.16.99s-1.74-.28-2.22-.84c-.48-.56-.72-1.26-.72-2.1,0-.61.18-1.29.56-2.05.37-.76.84-1.54,1.4-2.34.56-.8,1.17-1.61,1.81-2.41.64-.8,1.25-1.58,1.81-2.32.56-.74,1.03-1.42,1.4-2.03.37-.61.55-1.11.55-1.5,0-.45-.12-.76-.36-.94-.24-.18-.54-.27-.89-.27-.64,0-1.4.22-2.27.65s-1.78,1.05-2.73,1.83c-.95.79-1.92,1.71-2.92,2.75-1,1.05-1.97,2.17-2.92,3.38s-1.84,2.48-2.68,3.81c-.84,1.34-1.56,2.66-2.17,3.98h-3.09c.9-1.61,1.87-3.22,2.92-4.83,1.04-1.61,2.02-3.1,2.92-4.46.9-1.37,1.66-2.56,2.27-3.57.61-1.01.92-1.76.92-2.24,0-.87-.45-1.3-1.35-1.3-.8,0-1.71.3-2.7.89-1,.6-2.01,1.37-3.04,2.32-1.03.95-2.04,2.03-3.04,3.23-1,1.21-1.94,2.42-2.82,3.64s-1.66,2.39-2.34,3.5c-.68,1.11-1.21,2.05-1.59,2.82h-3.14Z"/><path class="cls-1" d="M130.4,55.69c.71-1.19,1.52-2.49,2.44-3.91.92-1.42,1.85-2.85,2.8-4.32.95-1.46,1.88-2.91,2.8-4.34.92-1.43,1.75-2.78,2.48-4.03h2.94l-6.37,8.98.1.1c.61-.74,1.35-1.65,2.22-2.73.87-1.08,1.83-2.12,2.87-3.11,1.04-1,2.16-1.85,3.35-2.56,1.19-.71,2.41-1.06,3.67-1.06.77,0,1.41.2,1.91.6.5.4.75.99.75,1.76,0,.45-.16,1-.48,1.64-.32.64-.7,1.3-1.13,1.95-.43.66-.88,1.3-1.33,1.91-.45.61-.8,1.11-1.06,1.5l.1.1c.68-.96,1.49-1.99,2.44-3.09.95-1.09,1.96-2.12,3.04-3.06,1.08-.95,2.19-1.74,3.33-2.37,1.14-.63,2.24-.94,3.31-.94.93,0,1.63.23,2.1.68.47.45.7,1.08.7,1.88,0,.55-.19,1.19-.56,1.93-.37.74-.84,1.52-1.4,2.34-.56.82-1.17,1.65-1.81,2.49-.64.84-1.25,1.64-1.81,2.41-.56.77-1.03,1.49-1.4,2.15-.37.66-.56,1.21-.56,1.66,0,.39.12.69.36.92.24.23.54.34.89.34.77,0,1.68-.31,2.73-.92,1.05-.61,2.17-1.46,3.38-2.56,1.21-1.09,2.47-2.41,3.79-3.93,1.32-1.53,2.65-3.21,4.01-5.04l.38.19c-1.32,1.8-2.64,3.48-3.96,5.04-1.32,1.56-2.6,2.92-3.84,4.08-1.24,1.16-2.43,2.07-3.57,2.73-1.14.66-2.2.99-3.16.99s-1.74-.28-2.22-.84c-.48-.56-.72-1.26-.72-2.1,0-.61.18-1.29.56-2.05.37-.76.84-1.54,1.4-2.34.56-.8,1.17-1.61,1.81-2.41.64-.8,1.25-1.58,1.81-2.32.56-.74,1.03-1.42,1.4-2.03.37-.61.55-1.11.55-1.5,0-.45-.12-.76-.36-.94-.24-.18-.54-.27-.89-.27-.64,0-1.4.22-2.27.65s-1.78,1.05-2.73,1.83c-.95.79-1.92,1.71-2.92,2.75-1,1.05-1.97,2.17-2.92,3.38s-1.84,2.48-2.68,3.81c-.84,1.34-1.56,2.66-2.17,3.98h-3.09c.9-1.61,1.87-3.22,2.92-4.83,1.04-1.61,2.02-3.1,2.92-4.46.9-1.37,1.66-2.56,2.27-3.57.61-1.01.92-1.76.92-2.24,0-.87-.45-1.3-1.35-1.3-.8,0-1.71.3-2.7.89-1,.6-2.01,1.37-3.04,2.32-1.03.95-2.04,2.03-3.04,3.23-1,1.21-1.94,2.42-2.82,3.64s-1.66,2.39-2.34,3.5c-.68,1.11-1.21,2.05-1.59,2.82h-3.14Z"/><path class="cls-1" d="M176.58,39.09c-1.25,1.71-2.46,3.33-3.62,4.87-1.16,1.54-2.19,2.96-3.09,4.25-.9,1.29-1.62,2.41-2.15,3.35-.53.95-.8,1.7-.8,2.24,0,.51.13.89.39,1.13.26.24.59.36,1.01.36.61,0,1.28-.19,2-.58.72-.39,1.46-.88,2.22-1.5.76-.61,1.5-1.29,2.22-2.03.72-.74,1.4-1.47,2.03-2.2.63-.72,1.17-1.39,1.64-2,.47-.61.81-1.09,1.04-1.45l4.25-6.47h3.33c-1.74,2.38-3.21,4.4-4.42,6.06-1.21,1.66-2.19,3.06-2.94,4.22-.76,1.16-1.29,2.1-1.62,2.82s-.48,1.36-.48,1.91c0,.39.11.72.34.99.22.27.55.41.96.41.64,0,1.38-.23,2.22-.7.84-.47,1.7-1.08,2.61-1.83.9-.76,1.79-1.61,2.68-2.56.89-.95,1.72-1.89,2.51-2.82.79-.93,1.5-1.81,2.15-2.63.64-.82,1.14-1.49,1.5-2l.48.14c-.39.55-.9,1.25-1.54,2.1-.64.85-1.37,1.75-2.17,2.7-.81.95-1.66,1.91-2.56,2.9-.9.98-1.83,1.86-2.78,2.63-.95.77-1.88,1.41-2.8,1.91-.92.5-1.78.75-2.58.75-.9,0-1.62-.25-2.15-.75-.53-.5-.8-1.17-.8-2,0-.64.1-1.26.31-1.86.21-.6.36-.97.46-1.13l-.1-.1c-.68.77-1.38,1.51-2.12,2.22-.74.71-1.48,1.33-2.22,1.86s-1.49.96-2.24,1.28c-.76.32-1.5.48-2.24.48-1.03,0-1.77-.23-2.22-.7s-.68-1.02-.68-1.67c0-.8.22-1.67.65-2.61.43-.93,1.04-1.98,1.81-3.14.77-1.16,1.7-2.46,2.78-3.91,1.08-1.45,2.26-3.1,3.55-4.97h3.19Z"/><path class="cls-1" d="M197.43,39.09l-6.37,8.83.1.1c.68-.8,1.46-1.74,2.36-2.82.9-1.08,1.87-2.1,2.9-3.06,1.03-.96,2.1-1.78,3.21-2.44,1.11-.66,2.21-.99,3.31-.99.96,0,1.71.27,2.24.8.53.53.8,1.21.8,2.05,0,.52-.19,1.13-.56,1.83-.37.71-.83,1.47-1.38,2.27-.55.8-1.14,1.62-1.79,2.46-.64.84-1.24,1.63-1.78,2.39-.55.76-1.01,1.45-1.38,2.08-.37.63-.56,1.15-.56,1.57,0,.9.45,1.35,1.35,1.35,1.03,0,2.12-.35,3.28-1.04,1.16-.69,2.54-1.86,4.15-3.5.64-.64,1.29-1.35,1.95-2.12.66-.77,1.29-1.54,1.91-2.29s1.17-1.47,1.67-2.15c.5-.68.89-1.24,1.18-1.69l.34.19c-.64.97-1.47,2.12-2.48,3.45-1.01,1.34-2.12,2.65-3.31,3.93-.71.77-1.43,1.51-2.17,2.22-.74.71-1.48,1.33-2.22,1.86-.74.53-1.47.95-2.2,1.25-.72.31-1.44.46-2.15.46-.93,0-1.71-.26-2.32-.77-.61-.51-.92-1.22-.92-2.12,0-.96.39-2.02,1.16-3.16.77-1.14,1.62-2.29,2.56-3.45.93-1.16,1.79-2.27,2.56-3.33s1.16-1.99,1.16-2.8c0-.39-.13-.68-.38-.87-.26-.19-.6-.29-1.01-.29-.8,0-1.71.3-2.7.89-1,.6-2.02,1.38-3.06,2.37-1.05.98-2.09,2.08-3.14,3.28-1.05,1.21-2.02,2.41-2.92,3.62-.9,1.21-1.71,2.37-2.41,3.48-.71,1.11-1.24,2.04-1.59,2.77h-2.99c.84-1.42,1.73-2.85,2.68-4.32.95-1.46,1.89-2.91,2.82-4.34.93-1.43,1.83-2.82,2.68-4.15.85-1.33,1.62-2.55,2.29-3.64l3.14-.14Z"/><path class="cls-1" d="M219.44,39.09c-1.77,2.54-3.27,4.68-4.49,6.42-1.22,1.74-2.21,3.19-2.97,4.34-.76,1.16-1.3,2.08-1.64,2.75-.34.68-.51,1.22-.51,1.64,0,.84.34,1.25,1.01,1.25s1.39-.23,2.24-.7c.85-.47,1.75-1.07,2.68-1.81.93-.74,1.87-1.58,2.8-2.51.93-.93,1.81-1.86,2.63-2.77s1.54-1.8,2.17-2.65c.63-.85,1.09-1.55,1.37-2.1l.39.24c-.39.64-.91,1.42-1.57,2.32-.66.9-1.41,1.83-2.24,2.78-.84.95-1.72,1.89-2.65,2.82-.93.93-1.88,1.77-2.85,2.51-.97.74-1.91,1.34-2.82,1.79-.92.45-1.76.68-2.53.68-.87,0-1.51-.24-1.93-.72s-.63-1.01-.63-1.59c0-.68.15-1.39.46-2.15.31-.76.8-1.68,1.47-2.77.68-1.09,1.55-2.42,2.63-3.98,1.08-1.56,2.37-3.48,3.88-5.77h3.09ZM222.24,30.11c.45,0,.82.15,1.11.46.29.31.43.68.43,1.13s-.14.83-.43,1.13c-.29.31-.66.46-1.11.46s-.82-.15-1.11-.46c-.29-.31-.43-.68-.43-1.13s.15-.83.43-1.13.66-.46,1.11-.46Z"/><path class="cls-1" d="M240.92,43.58c-.74,1.19-1.71,2.47-2.92,3.84-1.21,1.37-2.52,2.65-3.93,3.84-1.74,1.45-3.47,2.61-5.21,3.5-1.74.89-3.44,1.33-5.12,1.33-1.19,0-2.19-.31-2.99-.94-.81-.63-1.21-1.55-1.21-2.77,0-1.54.44-3.12,1.33-4.73.89-1.61,2-3.08,3.33-4.42,1.33-1.33,2.8-2.42,4.39-3.26,1.59-.84,3.1-1.25,4.51-1.25.93,0,1.75.17,2.44.51.69.34,1.04.92,1.04,1.76,0,.39-.1.71-.31.97-.21.26-.47.47-.77.63-.31.16-.64.28-1.01.36-.37.08-.7.14-.99.17.13-.32.24-.65.34-.99.1-.34.15-.68.15-1.04,0-1.19-.56-1.79-1.69-1.79-.84,0-1.83.41-2.97,1.23-1.14.82-2.22,1.86-3.23,3.11-1.01,1.25-1.87,2.64-2.58,4.15-.71,1.51-1.06,2.98-1.06,4.39,0,.87.2,1.61.6,2.22.4.61,1.02.92,1.86.92,1.13,0,2.42-.37,3.89-1.11,1.46-.74,2.89-1.66,4.27-2.75,1.45-1.13,2.84-2.42,4.18-3.89,1.34-1.46,2.45-2.89,3.35-4.27l.34.29Z"/><path class="cls-1" d="M253.71,39.09h3.14c-1.19,1.67-2.33,3.3-3.43,4.87-1.09,1.58-2.07,3.03-2.92,4.37-.85,1.34-1.54,2.51-2.05,3.52-.51,1.01-.77,1.81-.77,2.39,0,.84.43,1.25,1.3,1.25.68,0,1.54-.33,2.58-.99,1.04-.66,2.18-1.57,3.4-2.73,1.22-1.16,2.48-2.51,3.76-4.05s2.51-3.19,3.67-4.92l.29.1c-.87,1.32-1.89,2.74-3.06,4.27-1.17,1.53-2.41,2.95-3.69,4.27-1.29,1.32-2.57,2.42-3.86,3.31-1.29.89-2.49,1.33-3.62,1.33-.93,0-1.62-.23-2.05-.7-.43-.47-.65-1.02-.65-1.67,0-.45.07-.89.22-1.33.14-.43.3-.88.46-1.33l-.1-.05c-.42.45-.94.97-1.57,1.57-.63.6-1.3,1.15-2.03,1.66-.72.52-1.47.95-2.24,1.3-.77.35-1.51.53-2.22.53-1.19,0-2.03-.37-2.51-1.11s-.72-1.58-.72-2.51c0-1.32.42-2.77,1.25-4.37s1.9-3.09,3.19-4.49c1.29-1.4,2.69-2.57,4.2-3.5,1.51-.93,2.94-1.4,4.3-1.4.64,0,1.21.09,1.69.27.48.18.88.42,1.21.72.32.31.57.65.75,1.04.18.39.31.79.41,1.21h.1l1.59-2.85ZM237.93,52.6c0,.74.15,1.31.46,1.71.31.4.73.6,1.28.6s1.19-.2,1.93-.6c.74-.4,1.51-.94,2.32-1.62.8-.68,1.6-1.46,2.39-2.34.79-.88,1.49-1.83,2.1-2.82.61-1,1.11-2.01,1.5-3.04.39-1.03.58-2.01.58-2.94,0-.74-.21-1.3-.63-1.69s-.93-.58-1.54-.58c-.97,0-2.04.42-3.23,1.25-1.19.84-2.32,1.91-3.38,3.21-1.06,1.3-1.95,2.74-2.68,4.32-.72,1.58-1.09,3.09-1.09,4.54Z"/><path class="cls-1" d="M270.75,33.49l-3.81,5.6h6.37l-.29.58h-6.47c-1.29,2.09-2.44,3.9-3.45,5.43-1.01,1.53-1.87,2.85-2.56,3.96-.69,1.11-1.21,2.04-1.57,2.8-.35.76-.53,1.42-.53,2,0,.61.21,1.04.63,1.28.42.24.9.36,1.45.36,1.16,0,2.44-.44,3.84-1.33,1.4-.89,2.79-1.97,4.18-3.26,1.38-1.29,2.7-2.65,3.96-4.1,1.25-1.45,2.32-2.75,3.19-3.91l.29.19c-1.09,1.38-2.29,2.84-3.6,4.37-1.3,1.53-2.65,2.93-4.03,4.2-1.38,1.27-2.78,2.32-4.18,3.16-1.4.84-2.73,1.25-3.98,1.25-1,0-1.86-.31-2.58-.92s-1.09-1.46-1.09-2.56c0-.74.21-1.57.63-2.49.42-.92.96-1.91,1.64-2.97.68-1.06,1.44-2.22,2.29-3.47.85-1.25,1.73-2.59,2.63-4.01h-2.61l.29-.58h2.7l3.76-5.6h2.9Z"/><path class="cls-1" d="M297.34,43.48c-.77.87-1.64,1.56-2.61,2.08-.96.52-1.92.77-2.85.77s-1.67-.2-2.32-.6c-.64-.4-1.14-.88-1.5-1.42h-.1c-.32,1.22-.92,2.53-1.79,3.91-.87,1.38-1.91,2.65-3.11,3.81-1.21,1.16-2.53,2.12-3.98,2.9-1.45.77-2.93,1.16-4.44,1.16-1.38,0-2.43-.4-3.14-1.21-.71-.8-1.06-1.88-1.06-3.23,0-.71.18-1.53.53-2.46.35-.93.84-1.87,1.47-2.82s1.37-1.88,2.22-2.8c.85-.92,1.78-1.74,2.78-2.46,1-.72,2.05-1.3,3.16-1.74,1.11-.43,2.23-.65,3.35-.65,1.32,0,2.34.39,3.06,1.16.72.77,1.12,1.77,1.18,2.99.06.74.41,1.42,1.04,2.05.63.63,1.49.94,2.58.94.96,0,1.87-.24,2.73-.72.85-.48,1.65-1.11,2.39-1.88l.39.24ZM273.06,52.8c0,.84.16,1.5.48,1.98.32.48.8.72,1.45.72.87,0,1.73-.23,2.58-.7.85-.47,1.67-1.08,2.46-1.83.79-.76,1.52-1.62,2.2-2.58.68-.97,1.26-1.96,1.76-2.99.5-1.03.89-2.03,1.18-3.02.29-.98.43-1.87.43-2.68,0-.68-.17-1.25-.51-1.71-.34-.47-.86-.7-1.57-.7s-1.4.22-2.17.65c-.77.43-1.55,1.01-2.34,1.71-.79.71-1.54,1.53-2.24,2.46-.71.93-1.34,1.9-1.91,2.9-.56,1-1.01,2-1.33,2.99-.32,1-.48,1.93-.48,2.8Z"/><path class="cls-1" d="M302.02,39.09l-6.13,8.93.1.1c.45-.55,1.02-1.18,1.71-1.91.69-.72,1.45-1.46,2.27-2.22.82-.76,1.68-1.5,2.58-2.24s1.79-1.4,2.66-1.98c.16-.32.34-.58.53-.77.19-.19.58-.29,1.16-.29.35,0,.67,0,.94.02.27.02.56.04.84.07-.55.55-1.08,1.21-1.59,2-.52.79-.77,1.65-.77,2.58,0,.74.18,1.32.56,1.74.37.42.83.63,1.37.63.48,0,.96-.1,1.42-.29.47-.19.91-.43,1.33-.72.42-.29.82-.6,1.21-.92.39-.32.72-.61,1.01-.87l.29.19c-.32.32-.69.67-1.11,1.04-.42.37-.87.72-1.35,1.04-.48.32-1,.59-1.54.8-.55.21-1.11.31-1.69.31-1.03,0-1.86-.31-2.48-.94-.63-.63-.94-1.5-.94-2.63,0-.77.18-1.46.53-2.08l-.1-.1c-1.32.9-2.77,2.08-4.34,3.55-1.58,1.46-3.25,3.19-5.02,5.19-.64.71-1.31,1.64-2,2.8-.69,1.16-1.29,2.35-1.81,3.57h-3.14c1.74-2.77,3.47-5.52,5.21-8.25s3.52-5.52,5.36-8.35h2.94Z"/><path class="cls-1" d="M8.4,23.75V5.79H3.46v6.11H.5V2.79h19.41v9.11h-2.96v-6.11h-4.93v17.96h3.12v3H5.34v-3h3.06Z"/><path class="cls-1" d="M26.44,23.75V5.79h-2.72v-3h9.16v3h-2.83v6.85h10.42v-6.85h-2.81v-3h9.16v3h-2.74v17.96h2.74v3h-9.16v-3h2.81v-8.11h-10.42v8.11h2.83v3h-9.16v-3h2.72Z"/><path class="cls-1" d="M54.27,23.75V5.79h-3.09v-3h19.9v7.21h-2.96v-4.22h-10.23v7.13h8.91v3h-8.91v7.84h10.23v-4.36h2.96v7.36h-19.9v-3h3.09Z"/><rect class="cls-1" x="77.75" y="18.29" width="5.49" height="4.52"/></svg>