<?xml version="1.0" encoding="UTF-8" standalone="no"?>
<!-- Created with Inkscape (http://www.inkscape.org/) -->

<svg
   width="1200"
   height="630"
   viewBox="0 0 1200 630"
   version="1.1"
   id="svg1"
   inkscape:version="1.3.2 (091e20e, 2023-11-25, custom)"
   sodipodi:docname="og-image-large.svg"
   inkscape:export-filename="og-image-large.png"
   inkscape:export-xdpi="96"
   inkscape:export-ydpi="96"
   xmlns:inkscape="http://www.inkscape.org/namespaces/inkscape"
   xmlns:sodipodi="http://sodipodi.sourceforge.net/DTD/sodipodi-0.dtd"
   xmlns="http://www.w3.org/2000/svg"
   xmlns:svg="http://www.w3.org/2000/svg">
  <sodipodi:namedview
     id="namedview1"
     pagecolor="#ffffff"
     bordercolor="#666666"
     borderopacity="1.0"
     inkscape:showpageshadow="2"
     inkscape:pageopacity="0.0"
     inkscape:pagecheckerboard="0"
     inkscape:deskcolor="#d1d1d1"
     inkscape:document-units="px"
     inkscape:zoom="0.7751225"
     inkscape:cx="572.16763"
     inkscape:cy="359.29805"
     inkscape:window-width="1920"
     inkscape:window-height="1001"
     inkscape:window-x="-9"
     inkscape:window-y="-9"
     inkscape:window-maximized="1"
     inkscape:current-layer="layer1"
     inkscape:export-bgcolor="#ffffffff" />
  <defs
     id="defs1" />
  <g
     inkscape:label="Layer 1"
     inkscape:groupmode="layer"
     id="layer1">
    <path
       d="m 208.25097,301.63324 v -84.9603 h -14.66299 v -14.17693 h 94.15506 v 34.12588 H 273.72813 V 216.67294 H 225.3443 v 33.72083 h 42.10547 v 14.17694 H 225.3443 v 37.06253 h 48.38383 v -20.61731 h 14.01491 v 34.77397 h -94.15506 v -14.17693 h 14.66299 z m 156.00697,-35.38157 h -31.9386 l -6.78466,20.07048 h 10.77445 v 11.09851 h -34.93599 v -11.09851 h 10.73395 l 24.20204,-67.56319 H 325.59542 V 208.7541 h 45.32566 v 10.00486 h -11.07824 l 24.80962,67.56319 h 9.92385 v 11.09851 h -34.73347 v -11.09851 h 11.03774 l -6.60239,-20.07048 z m -3.34172,-10.40992 -11.80735,-37.10304 h -1.21516 l -12.29343,37.10304 h 25.29569 z m 46.94589,41.57891 v -32.20187 h 11.09852 v 7.83781 c 5.30621,9.64031 12.25291,14.46047 20.84007,14.46047 4.3746,0 8.08086,-1.33668 11.0985,-4.01005 3.01767,-2.67336 4.51638,-6.1771 4.51638,-10.51119 0,-4.33407 -1.23542,-7.23022 -3.70626,-9.09348 -2.47082,-1.86325 -7.10871,-3.68599 -13.95413,-5.50875 -7.9391,-2.12654 -13.83266,-4.13156 -17.66041,-6.01507 -3.82778,-1.8835 -6.86569,-4.59737 -9.15425,-8.10109 -2.28855,-3.50373 -3.40245,-7.65555 -3.40245,-12.45545 0,-7.43276 2.47082,-13.36681 7.43275,-17.82242 4.94167,-4.43537 11.15927,-6.66316 18.65278,-6.66316 7.49352,0 13.69087,2.28857 19.76669,6.88594 v -5.93406 h 10.83522 v 26.89565 H 453.3903 v -6.17707 c -4.55687,-6.84544 -10.81496,-10.26816 -18.81482,-10.26816 -4.8404,0 -8.56689,1.1139 -11.15925,3.34171 -2.59235,2.22779 -3.88853,4.90116 -3.88853,7.99982 0,2.38984 0.66834,4.47588 1.98477,6.27837 1.31643,1.80249 2.99741,3.13918 5.04294,3.98979 2.04552,0.85061 6.05556,2.04552 12.05038,3.56449 7.81756,2.02526 13.48833,3.92903 17.01231,5.69102 3.52398,1.76199 6.5619,4.69865 9.11375,8.8302 2.55184,4.13156 3.82776,8.87071 3.82776,14.21744 0,7.57454 -2.67335,13.81238 -7.99982,18.75404 -5.32649,4.92142 -11.92888,7.39225 -19.78696,7.39225 -7.85807,0 -15.35157,-2.91639 -21.79196,-8.72892 v 7.33149 H 407.88236 Z M 513.2169,286.32215 v -66.48979 h -18.28819 v 22.62233 h -10.95675 v -33.72084 h 71.83654 v 33.72084 h -10.9568 v -22.62233 h -18.2274 v 66.48979 h 11.544 v 11.09851 h -36.2727 v -11.09851 h 11.3416 z m 67.4215,0 v -66.48979 h -11.2201 v -11.09851 h 68.7784 v 26.71337 h -10.9568 v -15.61486 h -33.2145 v 26.26782 h 28.6172 v 11.0985 h -28.6172 v 29.12347 h 11.3416 v 11.09851 h -35.9487 v -11.09851 z m 74.7529,-33.66007 c 0,-12.88076 4.2126,-23.65521 12.6174,-32.3234 8.4049,-8.66818 19.3819,-13.00227 32.8905,-13.00227 13.5086,0 24.7489,4.33409 33.336,13.00227 8.5872,8.66819 12.8808,19.52366 12.8808,32.56643 0,13.04276 -4.3746,24.28304 -13.1035,32.93097 -8.729,8.64793 -19.8275,12.98202 -33.3158,12.98202 -8.5872,0 -16.4858,-2.04553 -23.6755,-6.15683 -7.21,-4.09105 -12.6175,-9.82259 -16.2224,-17.15407 -3.605,-7.33153 -5.4278,-14.94655 -5.4278,-22.84512 z m 14.6022,0.0607 c 0,9.74157 2.8557,17.88318 8.5467,24.48557 5.691,6.58214 13.1642,9.88335 22.44,9.88335 9.2758,0 16.7288,-3.36197 22.6224,-10.10613 5.9137,-6.74417 8.8707,-14.78451 8.8707,-24.12103 0,-9.33653 -2.9974,-17.41737 -9.0125,-23.93876 -6.0151,-6.52139 -13.5694,-9.78209 -22.6628,-9.78209 -9.0935,0 -16.4453,3.19996 -22.1768,9.62006 -5.7315,6.42012 -8.6074,14.39973 -8.6074,23.95903 z m 107.1776,33.5993 v -66.48975 h -12.1719 v -11.0985 h 36.0094 c 7.5138,0 13.4883,0.58733 17.9034,1.76199 4.4151,1.17466 8.0809,3.62524 10.9567,7.39226 2.8759,3.767 4.3341,8.44539 4.3341,14.0554 0,11.72635 -6.096,19.09836 -18.268,22.116 l 15.6554,32.26264 h 10.8353 v 11.09852 h -19.1997 l -20.192,-41.43713 h -12.4959 v 30.33861 h 11.3415 v 11.09852 h -36.9005 v -11.09848 h 12.1719 z m 13.387,-41.43713 h 10.4505 c 5.0631,0 8.7896,-0.32404 11.1795,-0.99238 2.4101,-0.66834 4.3746,-2.00502 5.8935,-4.01005 1.519,-2.00501 2.2886,-4.7189 2.2886,-8.12134 0,-2.89615 -0.7696,-5.32649 -2.3291,-7.33152 -1.5594,-2.00501 -3.4632,-3.26068 -5.7315,-3.78724 -2.2683,-0.52658 -5.7518,-0.78988 -10.4302,-0.78988 h -11.3415 v 25.05267 z m 75.1378,41.43713 v -66.48975 h -12.0504 v -11.0985 h 34.2879 c 9.4783,0 16.7693,0.48606 21.8932,1.4582 5.1239,0.97212 10.0859,3.17967 14.8857,6.62264 4.8,3.44296 8.6277,8.16186 11.5037,14.17693 2.8758,6.01506 4.2936,12.8605 4.2936,20.55655 0,8.74919 -1.3772,16.36422 -4.1519,22.82484 -2.7543,6.46065 -6.3796,11.2808 -10.8758,14.46046 -4.4757,3.17971 -9.8225,5.40751 -15.9996,6.66317 -6.1771,1.25568 -14.0554,1.88351 -23.6147,1.88351 H 853.605 v -11.09851 h 12.0504 z m 13.387,0 h 7.0075 c 7.8175,0 14.0149,-0.48607 18.592,-1.45818 4.5771,-0.97214 8.4252,-2.65312 11.5644,-5.00243 3.1391,-2.34934 5.6909,-5.91381 7.6555,-10.67321 1.9645,-4.7594 2.9366,-10.36942 2.9366,-16.83004 0,-7.69604 -1.6,-14.21743 -4.8202,-19.56415 -3.1998,-5.34673 -7.3112,-8.85047 -12.2933,-10.49093 -5.0025,-1.64047 -12.6783,-2.4506 -23.0477,-2.4506 h -7.5948 v 66.48981 z"
       id="path1"
       style="stroke-width:2.02528" />
    <path
       d="m 186.78305,309.12675 c -0.1417,0.87088 -0.22278,1.72148 -0.22278,2.59235 v 2.59236 c 0,3.01766 0.54682,5.52901 1.62022,7.55428 1.0734,2.02527 2.49108,3.64549 4.21258,4.86064 1.72147,1.21517 3.70625,2.08606 5.93405,2.59235 2.2278,0.50635 4.49611,0.74936 6.80492,0.74936 3.88853,0 7.83783,-0.97212 11.86812,-2.91638 4.0303,-1.94427 7.69604,-4.59739 11.0175,-7.97958 3.3012,-3.38223 6.01506,-7.31125 8.1011,-11.76686 2.08602,-4.4556 3.13918,-9.134 3.13918,-14.03516 0,-6.03532 -1.66072,-10.10613 -4.96193,-12.19215 -3.32145,-2.08605 -7.77704,-3.13918 -13.38706,-3.13918 -6.48089,0 -13.5896,1.53921 -21.36665,4.63788 -7.77708,3.09867 -15.65539,7.37201 -23.63498,12.84025 -7.97957,5.46824 -15.69587,11.94911 -23.08813,19.42239 a 161.76887,161.76887 0 0 0 -19.86797,24.3843 c -5.83278,8.7897 -10.47067,17.98446 -13.91364,27.62476 -3.44295,9.64032 -5.18471,19.42239 -5.18471,29.34625 0,4.03031 0.50634,8.06058 1.51898,12.09088 0.99237,4.03031 2.59235,7.65555 4.73913,10.89599 2.1468,3.24044 4.96192,5.83279 8.4049,7.77706 3.46322,1.94426 7.63529,2.91639 12.5162,2.91639 7.04796,0 13.77187,-1.62022 20.17174,-4.86066 a 59.765875,59.765875 0 0 0 16.83005,-12.61746 c 4.82015,-5.1847 8.66816,-10.977 11.54407,-17.37687 2.87589,-6.39987 4.31383,-12.77949 4.31383,-19.09835 0,-5.75178 -1.70123,-10.14662 -5.06319,-13.16428 -3.38221,-3.01765 -7.95933,-4.53662 -13.71112,-4.53662 l -0.22278,-2.59235 c 9.07324,0 15.79716,1.8025 20.19201,5.40749 4.39483,3.605 6.58214,9.70106 6.58214,18.349 0,5.04293 -1.33668,10.65294 -3.98979,16.83003 -2.67338,6.19734 -6.58214,11.98963 -11.76686,17.37687 -5.18469,5.40747 -11.62508,9.90359 -19.32113,13.48832 -7.69604,3.605 -16.50599,5.4075 -26.45009,5.4075 -7.47328,0 -13.77187,-1.29619 -18.87557,-3.88854 -5.1037,-2.59235 -9.25552,-5.83279 -12.41494,-9.72132 -3.15942,-3.88853 -5.42773,-8.10111 -6.80492,-12.61746 C 100.66834,401.82361 100,397.61103 100,393.74275 c 0,-9.07321 1.94427,-18.30848 5.8328,-27.74626 3.88852,-9.41754 9.03272,-18.53128 15.43259,-27.30072 6.39987,-8.76944 13.77187,-17.01231 22.11601,-24.70835 8.34413,-7.69605 16.95155,-14.37945 25.802,-20.07049 8.85047,-5.69102 17.70092,-10.16687 26.55137,-13.48833 8.85045,-3.3012 16.93131,-4.96192 24.28306,-4.96192 9.07323,0 15.81739,1.86324 20.29324,5.61001 4.45561,3.74677 6.68342,9.21499 6.68342,16.40474 0,5.04292 -1.19491,9.72131 -3.56447,14.03515 -2.36959,4.31384 -5.54926,8.02009 -9.49856,11.11876 -3.96954,3.09868 -8.46565,5.54926 -13.48832,7.33149 -5.04296,1.80251 -10.22766,2.69362 -15.55413,2.69362 -5.61001,0 -10.43016,-1.33668 -14.46046,-3.98979 -4.03031,-2.65311 -6.19734,-7.23024 -6.46063,-13.71111 v -2.81514 c 0,-1.15442 0.0608,-2.16704 0.20253,-3.01766 h 2.59236 z m 130.58977,56.28241 c -2.93666,3.3012 -6.21762,5.9138 -9.88336,7.85807 -3.66575,1.94427 -7.25048,2.93664 -10.79472,2.93664 -3.54423,0 -6.3391,-0.7696 -8.76944,-2.28855 -2.45058,-1.51896 -4.33409,-3.32146 -5.67075,-5.38725 h -0.36456 c -1.21516,4.63788 -3.48349,9.57956 -6.76443,14.82502 a 76.397438,76.397438 0 0 1 -11.80735,14.46046 67.974316,67.974316 0 0 1 -15.08831,10.97701 c -5.48848,2.93665 -11.0985,4.39483 -16.83003,4.39483 -5.24547,0 -9.21501,-1.51894 -11.88836,-4.57711 -2.67336,-3.03792 -4.03031,-7.12896 -4.03031,-12.25291 0,-2.67337 0.66834,-5.79229 2.00503,-9.33652 1.33668,-3.54423 3.19993,-7.10873 5.5695,-10.69344 2.36956,-3.58476 5.18471,-7.12898 8.42515,-10.61246 3.24045,-3.48348 6.74415,-6.58215 10.51118,-9.33653 3.76702,-2.75436 7.77706,-4.94166 11.98964,-6.58214 4.21255,-1.64046 8.4454,-2.47082 12.71872,-2.47082 5.00243,0 8.8707,1.45818 11.62508,4.39484 2.75438,2.93665 4.23282,6.70365 4.47586,11.34154 0.24302,2.81513 1.55946,5.38725 3.92904,7.77705 2.36956,2.36957 5.63027,3.56449 9.78207,3.56449 3.66575,0 7.10871,-0.91137 10.32891,-2.73413 3.24044,-1.82273 6.25809,-4.21257 9.05299,-7.12896 l 1.45818,0.91137 z m -92.00826,35.3208 c 0,3.17967 0.60756,5.67076 1.82273,7.49352 1.21517,1.82273 3.03792,2.75437 5.48851,2.75437 3.28094,0 6.54163,-0.89111 9.78207,-2.6531 3.24043,-1.76199 6.33912,-4.09106 9.33653,-6.9467 2.9974,-2.85565 5.75178,-6.13658 8.32388,-9.78209 a 84.859036,84.859036 0 0 0 6.6834,-11.34154 c 1.88351,-3.90878 3.38221,-7.71629 4.47586,-11.44281 1.09365,-3.72651 1.64048,-7.1087 1.64048,-10.14662 0,-2.55185 -0.64809,-4.71889 -1.92403,-6.50113 -1.27591,-1.76199 -3.26069,-2.65312 -5.95429,-2.65312 -2.69362,0 -5.30622,0.83037 -8.24288,2.47085 -2.93665,1.64047 -5.89356,3.8075 -8.87071,6.50112 a 65.568292,65.568292 0 0 0 -8.50616,9.33653 94.944905,94.944905 0 0 0 -7.23023,10.97698 c -2.12654,3.78728 -3.80751,7.55428 -5.02268,11.34155 -1.21516,3.78725 -1.82274,7.31123 -1.82274,10.61244 z"
       id="path2"
       style="stroke-width:2.02528" />
    <path
       d="m 283.89501,411.70695 c 2.69361,-4.51636 5.75177,-9.45805 9.23525,-14.82503 3.48348,-5.36696 7.00746,-10.81495 10.61243,-16.38445 3.58475,-5.54926 7.12899,-11.03778 10.61246,-16.4655 3.48349,-5.42775 6.62264,-10.51118 9.41753,-15.27058 h 11.15926 l -24.14127,34.02462 0.36453,0.36456 c 2.30882,-2.79488 5.12395,-6.25809 8.4049,-10.32891 3.3012,-4.09105 6.92645,-8.02009 10.89599,-11.80736 3.96954,-3.78726 8.20236,-7.00744 12.71873,-9.70106 4.51636,-2.67336 9.15424,-4.03029 13.89339,-4.03029 2.93666,0 5.32647,0.76959 7.23023,2.28855 1.8835,1.51895 2.83539,3.74676 2.83539,6.6834 0,1.70124 -0.60759,3.78728 -1.82275,6.21761 -1.21516,2.45057 -2.65312,4.90116 -4.29358,7.41251 -1.64048,2.51134 -3.32146,4.90116 -5.02269,7.23022 -1.70124,2.32907 -3.03791,4.21258 -4.03029,5.67077 l 0.36454,0.36456 c 2.55183,-3.66574 5.63028,-7.55427 9.23526,-11.70609 3.58473,-4.15181 7.43276,-8.0201 11.52382,-11.62509 4.09105,-3.60497 8.28336,-6.58215 12.61746,-8.97196 4.33409,-2.36958 8.50616,-3.56448 12.53645,-3.56448 3.52398,0 6.19734,0.85061 7.95933,2.55185 1.762,1.70122 2.65312,4.09104 2.65312,7.12896 0,2.08603 -0.70886,4.51636 -2.10629,7.31123 -1.39744,2.81515 -3.17968,5.77205 -5.30622,8.87072 a 190.25234,190.25234 0 0 1 -6.86568,9.41754 c -2.45059,3.17967 -4.73914,6.21758 -6.86568,9.15424 -2.12655,2.91639 -3.90879,5.65052 -5.30624,8.1416 -1.39743,2.51135 -2.10627,4.59738 -2.10627,6.31886 0,1.45819 0.46581,2.63286 1.37717,3.48346 0.91138,0.85062 2.04555,1.27593 3.38222,1.27593 2.93666,0 6.37962,-1.1544 10.32889,-3.48348 3.96955,-2.30879 8.24289,-5.54923 12.79976,-9.70105 4.55687,-4.15182 9.35678,-9.11375 14.3592,-14.90603 5.00243,-5.79229 10.06561,-12.1719 15.18956,-19.1186 l 1.4582,0.72909 c -5.00243,6.82519 -10.00485,13.2048 -15.00729,19.11861 -5.00243,5.91381 -9.84284,11.058 -14.54148,15.45286 -4.69864,4.39483 -9.215,7.8378 -13.52884,10.3289 -4.33408,2.49108 -8.32388,3.74675 -11.98962,3.74675 -3.66576,0 -6.58215,-1.07339 -8.4049,-3.19994 -1.82275,-2.12653 -2.75438,-4.77965 -2.75438,-7.95932 0,-2.30882 0.70885,-4.90117 2.10629,-7.77706 1.39743,-2.85565 3.15943,-5.8328 5.30623,-8.87072 2.12653,-3.0379 4.4151,-6.09607 6.86569,-9.15422 2.43032,-3.03792 4.71887,-5.97458 6.86568,-8.7897 2.12654,-2.79488 3.90878,-5.36698 5.30622,-7.6758 1.39744,-2.30882 2.10629,-4.21258 2.10629,-5.67077 0,-1.70124 -0.46581,-2.89616 -1.37719,-3.5645 -0.91139,-0.66833 -2.04554,-1.01264 -3.38222,-1.01264 -2.45057,0 -5.30622,0.83037 -8.60742,2.47085 -3.3012,1.64048 -6.74416,3.96955 -10.3289,6.9467 -3.60499,2.9974 -7.291,6.46062 -11.07827,10.43016 a 177.59438,177.59438 0 0 0 -11.05799,12.79975 161.65747,161.65747 0 0 0 -10.14663,14.46047 137.4352,137.4352 0 0 0 -8.24286,15.08829 h -11.70611 c 3.42272,-6.09608 7.10872,-12.19216 11.05802,-18.28824 3.96953,-6.09608 7.65552,-11.74661 11.05799,-16.9313 3.42271,-5.18471 6.27836,-9.70107 8.60743,-13.52884 2.30881,-3.84802 3.48346,-6.68341 3.48346,-8.50616 0,-3.3012 -1.70123,-4.94168 -5.12394,-4.94168 -3.03792,0 -6.46063,1.13418 -10.24789,3.38223 -3.78726,2.26829 -7.61505,5.1847 -11.52382,8.78969 a 122.65067,122.65067 0 0 0 -11.52382,12.25291 c -3.78726,4.57712 -7.35174,9.17451 -10.7137,13.81238 a 201.83286,201.83286 0 0 0 -8.8707,13.26556 c -2.5721,4.21258 -4.57715,7.77705 -6.03533,10.69345 h -11.88836 z"
       id="path3"
       style="stroke-width:2.02528" />
    <path
       d="m 405.91785,411.70695 c 2.69362,-4.51636 5.75179,-9.45805 9.23526,-14.82503 3.48346,-5.36696 7.00744,-10.81495 10.61243,-16.38445 3.58474,-5.54926 7.12897,-11.03778 10.61245,-16.4655 3.48347,-5.42775 6.62264,-10.51118 9.41753,-15.27058 h 11.15927 l -24.14128,34.02462 0.36454,0.36456 c 2.30881,-2.79488 5.12395,-6.25809 8.40489,-10.32891 3.30121,-4.09105 6.92645,-8.02009 10.89599,-11.80736 3.96953,-3.78726 8.20237,-7.00744 12.71873,-9.70106 4.51637,-2.67336 9.15424,-4.03029 13.89339,-4.03029 2.93663,0 5.32647,0.76959 7.23024,2.28855 1.8835,1.51895 2.83538,3.74676 2.83538,6.6834 0,1.70124 -0.60758,3.78728 -1.82275,6.21761 -1.21516,2.45057 -2.65311,4.90116 -4.29359,7.41251 -1.64045,2.51134 -3.32146,4.90116 -5.02269,7.23022 -1.70121,2.32907 -3.0379,4.21258 -4.03027,5.67077 l 0.36453,0.36456 c 2.55185,-3.66574 5.63026,-7.55427 9.23525,-11.70609 3.58475,-4.15181 7.43276,-8.0201 11.52384,-11.62509 4.09104,-3.60497 8.28341,-6.58215 12.61751,-8.97196 4.334,-2.36958 8.5061,-3.56448 12.5364,-3.56448 3.524,0 6.1973,0.85061 7.9593,2.55185 1.762,1.70122 2.6532,4.09104 2.6532,7.12896 0,2.08603 -0.7089,4.51636 -2.1063,7.31123 -1.3975,2.81515 -3.1797,5.77205 -5.3063,8.87072 a 190.25234,190.25234 0 0 1 -6.8657,9.41754 c -2.4505,3.17967 -4.7391,6.21758 -6.8656,9.15424 -2.1266,2.91639 -3.9088,5.65052 -5.3063,8.1416 -1.3974,2.51135 -2.1062,4.59738 -2.1062,6.31886 0,1.45819 0.4658,2.63286 1.3771,3.48346 0.9114,0.85062 2.0456,1.27593 3.3823,1.27593 2.9366,0 6.3796,-1.1544 10.3289,-3.48348 3.9695,-2.30879 8.2428,-5.54923 12.7997,-9.70105 4.5569,-4.15182 9.3568,-9.11375 14.3592,-14.90603 5.0024,-5.79229 10.0656,-12.1719 15.1896,-19.1186 l 1.4582,0.72909 c -5.0025,6.82519 -10.0049,13.2048 -15.0073,19.11861 -5.0025,5.91381 -9.8429,11.058 -14.5415,15.45286 -4.6986,4.39483 -9.215,7.8378 -13.5288,10.3289 -4.3341,2.49108 -8.3239,3.74675 -11.9897,3.74675 -3.6657,0 -6.58211,-1.07339 -8.40486,-3.19994 -1.82277,-2.12653 -2.75439,-4.77965 -2.75439,-7.95932 0,-2.30882 0.70886,-4.90117 2.10629,-7.77706 1.39744,-2.85565 3.15946,-5.8328 5.30626,-8.87072 2.1265,-3.0379 4.4151,-6.09607 6.8656,-9.15422 2.4304,-3.03792 4.7189,-5.97458 6.8657,-8.7897 2.1266,-2.79488 3.9088,-5.36698 5.3063,-7.6758 1.3974,-2.30882 2.1063,-4.21258 2.1063,-5.67077 0,-1.70124 -0.4659,-2.89616 -1.3772,-3.5645 -0.9114,-0.66833 -2.0456,-1.01264 -3.3822,-1.01264 -2.4506,0 -5.3063,0.83037 -8.6075,2.47085 -3.3012,1.64048 -6.7441,3.96955 -10.32888,6.9467 -3.605,2.9974 -7.29099,6.46062 -11.07826,10.43016 a 177.59438,177.59438 0 0 0 -11.05799,12.79975 161.65747,161.65747 0 0 0 -10.14665,14.46047 137.4352,137.4352 0 0 0 -8.24287,15.08829 h -11.70608 c 3.42272,-6.09608 7.10872,-12.19216 11.058,-18.28824 3.96954,-6.09608 7.65555,-11.74661 11.05801,-16.9313 3.42271,-5.18471 6.27835,-9.70107 8.60743,-13.52884 2.30881,-3.84802 3.48346,-6.68341 3.48346,-8.50616 0,-3.3012 -1.70124,-4.94168 -5.12394,-4.94168 -3.03793,0 -6.46063,1.13418 -10.24791,3.38223 -3.78726,2.26829 -7.61503,5.1847 -11.5238,8.78969 a 122.65067,122.65067 0 0 0 -11.52382,12.25291 c -3.78726,4.57712 -7.35177,9.17451 -10.71371,13.81238 a 201.83286,201.83286 0 0 0 -8.87071,13.26556 c -2.57208,4.21258 -4.57713,7.77705 -6.03531,10.69345 H 405.8976 Z"
       id="path4"
       style="stroke-width:2.02528" />
    <path
       d="m 581.0029,348.76139 c -4.7594,6.46063 -9.3365,12.61747 -13.7111,18.47051 -4.3949,5.85306 -8.3036,11.22002 -11.7061,16.10094 -3.4227,4.88093 -6.1366,9.11374 -8.1416,12.71872 -2.005,3.605 -3.0177,6.44039 -3.0177,8.50616 0,1.94427 0.4861,3.38223 1.4582,4.2936 0.9722,0.91136 2.2481,1.37718 3.8481,1.37718 2.3088,0 4.8404,-0.72909 7.5947,-2.1873 2.7544,-1.45819 5.5493,-3.36196 8.4049,-5.67076 2.8557,-2.30881 5.6708,-4.88092 8.4252,-7.6758 2.7544,-2.79488 5.3062,-5.5695 7.6758,-8.32389 2.3898,-2.75437 4.4556,-5.26572 6.2175,-7.59478 1.762,-2.30881 3.0785,-4.15182 3.9291,-5.48849 l 16.1009,-24.50584 h 12.6175 c -6.5821,9.03274 -12.1719,16.66802 -16.749,22.96663 -4.5771,6.27835 -8.3037,11.62508 -11.1593,16.01993 -2.8759,4.39483 -4.9011,7.95933 -6.1366,10.69345 -1.2354,2.73412 -1.8227,5.1442 -1.8227,7.23023 0,1.4582 0.4253,2.71388 1.2759,3.74676 0.8506,1.03289 2.0658,1.55948 3.6657,1.55948 2.4304,0 5.2455,-0.89113 8.4252,-2.65312 3.1594,-1.76199 6.4606,-4.09106 9.8834,-6.9467 3.4227,-2.85565 6.8049,-6.09608 10.1466,-9.70108 3.3619,-3.60497 6.5214,-7.16946 9.5188,-10.69344 2.9974,-3.54424 5.7112,-6.86569 8.1416,-9.96436 2.4303,-3.11893 4.3341,-5.63026 5.6707,-7.59478 l 1.8228,0.54682 c -1.4582,2.06579 -3.4227,4.7189 -5.8531,7.95934 -2.4303,3.24043 -5.1847,6.64289 -8.2226,10.24789 -3.0581,3.60499 -6.2783,7.25048 -9.7011,10.97699 a 100.05873,100.05873 0 0 1 -10.5111,9.96436 c -3.605,2.91639 -7.129,5.34673 -10.6125,7.23022 -3.4835,1.8835 -6.7441,2.8354 -9.7821,2.8354 -3.4227,0 -6.1365,-0.9519 -8.1416,-2.8354 -2.005,-1.88349 -3.0176,-4.4151 -3.0176,-7.59478 0,-2.43032 0.405,-4.77965 1.1949,-7.04795 0.7898,-2.24805 1.3772,-3.68601 1.7417,-4.29358 l -0.3645,-0.36455 a 131.30467,131.30467 0 0 1 -8.0404,8.40488 78.485496,78.485496 0 0 1 -8.4251,7.04796 c -2.7949,2.00502 -5.6505,3.62526 -8.5062,4.84042 -2.8759,1.21516 -5.7112,1.82273 -8.5061,1.82273 -3.9088,0 -6.7037,-0.89111 -8.4252,-2.65309 -1.7215,-1.76199 -2.5518,-3.86828 -2.5518,-6.31887 0,-3.03791 0.8303,-6.33911 2.4708,-9.88334 1.6405,-3.54422 3.9291,-7.49352 6.8657,-11.88836 2.9367,-4.39486 6.4404,-9.33652 10.5112,-14.82502 4.091,-5.4885 8.5669,-11.76685 13.4478,-18.83507 h 12.0707 z"
       id="path5"
       style="stroke-width:2.02528" />
    <path
       d="m 660.0291,348.76139 -24.1412,33.4778 0.3645,0.36454 c 2.5519,-3.03791 5.5493,-6.62263 8.972,-10.69344 a 132.14922,132.14922 0 0 1 10.977,-11.62509 c 3.9088,-3.66573 7.9593,-6.74415 12.1719,-9.23524 4.2126,-2.4911 8.3846,-3.74677 12.5364,-3.74677 3.6658,0 6.5012,1.01263 8.5062,3.01767 2.005,2.00503 3.0177,4.59738 3.0177,7.77705 0,1.94427 -0.7089,4.27333 -2.1063,6.9467 -1.3975,2.69362 -3.1392,5.54925 -5.2252,8.60742 a 197.84307,197.84307 0 0 1 -6.7645,9.33651 c -2.4303,3.17969 -4.6986,6.19735 -6.7644,9.05298 a 102.9893,102.9893 0 0 0 -5.2252,7.87832 c -1.3974,2.36958 -2.1063,4.35435 -2.1063,5.95431 0,3.42272 1.7013,5.12397 5.124,5.12397 3.9088,0 8.0403,-1.31646 12.4352,-3.92906 4.3948,-2.61259 9.6403,-7.04796 15.7364,-13.26555 2.4505,-2.43032 4.9011,-5.12393 7.4125,-8.04034 2.5113,-2.93664 4.9011,-5.8328 7.2302,-8.68842 2.3291,-2.85563 4.4151,-5.58977 6.3188,-8.14162 1.8836,-2.5721 3.3823,-4.69863 4.4759,-6.39986 l 1.2759,0.7291 c -2.4505,3.66574 -5.5695,8.02009 -9.4175,13.08327 -3.848,5.06319 -8.0201,10.02511 -12.5365,14.90604 a 180.36091,180.36091 0 0 1 -8.2428,8.42514 78.485496,78.485496 0 0 1 -8.4252,7.04796 c -2.8151,2.00501 -5.5695,3.60498 -8.3238,4.7594 -2.7544,1.1544 -5.4683,1.74174 -8.1417,1.74174 -3.5442,0 -6.4606,-0.97216 -8.7694,-2.93666 -2.3088,-1.94426 -3.4835,-4.63788 -3.4835,-8.04036 0,-3.66574 1.4582,-7.65553 4.3949,-11.98962 2.9366,-4.33409 6.1568,-8.68844 9.701,-13.08327 3.524,-4.39486 6.7645,-8.60742 9.7011,-12.61746 2.9367,-4.01006 4.3949,-7.55429 4.3949,-10.61245 0,-1.45821 -0.4861,-2.55185 -1.4582,-3.30121 -0.9722,-0.72909 -2.2683,-1.09364 -3.8481,-1.09364 -3.0379,0 -6.4606,1.13416 -10.2479,3.38221 -3.7872,2.26832 -7.6555,5.24547 -11.625,8.97197 a 163.75971,163.75971 0 0 0 -11.8884,12.43519 c -3.9695,4.57711 -7.6555,9.15425 -11.058,13.71111 a 225.98024,225.98024 0 0 0 -9.1543,13.16429 c -2.6936,4.21258 -4.6986,7.71631 -6.0353,10.51119 h -11.3415 c 3.1797,-5.36698 6.5619,-10.81497 10.1466,-16.38448 3.605,-5.54926 7.1695,-11.03775 10.7137,-16.46549 3.524,-5.42775 6.9265,-10.6732 10.1467,-15.7364 3.2404,-5.06318 6.1365,-9.66056 8.6884,-13.81237 l 11.8883,-0.54683 z"
       id="path6"
       style="stroke-width:2.02528" />
    <path
       d="m 743.4502,348.76139 c -6.7036,9.64031 -12.3744,17.74142 -17.0123,24.32357 -4.6378,6.58213 -8.3846,12.07064 -11.2605,16.46547 -2.8759,4.39486 -4.9417,7.85808 -6.2176,10.43019 -1.2759,2.5721 -1.924,4.63787 -1.924,6.21758 0,3.17969 1.2759,4.75939 3.848,4.75939 2.5721,0 5.2657,-0.8911 8.5062,-2.6531 3.2404,-1.76198 6.6226,-4.05055 10.1466,-6.86568 3.524,-2.79489 7.0682,-5.97457 10.6125,-9.51879 3.5239,-3.54423 6.8656,-7.04797 9.9643,-10.51119 3.1189,-3.48347 5.853,-6.82518 8.2429,-10.06562 2.3695,-3.24043 4.1113,-5.8733 5.2049,-7.95932 l 1.4582,0.91137 c -1.4582,2.45058 -3.4429,5.36698 -5.9543,8.7897 a 145.88464,145.88464 0 0 1 -8.5061,10.51118 c -3.1797,3.60498 -6.5214,7.16946 -10.0656,10.69344 a 110.15067,110.15067 0 0 1 -10.7948,9.51879 c -3.6657,2.81513 -7.2302,5.0632 -10.7137,6.76443 -3.4835,1.70121 -6.6834,2.55185 -9.5998,2.55185 -3.3012,0 -5.7315,-0.91137 -7.3112,-2.75439 -1.5797,-1.843 -2.3696,-3.84802 -2.3696,-6.0353 0,-2.55187 0.5873,-5.26573 1.7417,-8.14162 1.1545,-2.85564 3.0177,-6.37962 5.5898,-10.51118 2.5518,-4.15181 5.8733,-9.17451 9.9643,-15.0883 4.0911,-5.91379 8.9923,-13.2048 14.7238,-21.85271 H 743.43 Z m 10.6125,-34.02463 c 1.7012,0 3.0986,0.58732 4.2126,1.74174 1.0936,1.15441 1.6404,2.59236 1.6404,4.29359 0,1.70122 -0.5468,3.13917 -1.6404,4.29358 -1.0937,1.15441 -2.5114,1.74174 -4.2126,1.74174 -1.7012,0 -3.1189,-0.56708 -4.2126,-1.74174 -1.0936,-1.15441 -1.6405,-2.59236 -1.6405,-4.29358 0,-1.70123 0.5469,-3.13918 1.6405,-4.29359 1.0937,-1.15442 2.4911,-1.74174 4.2126,-1.74174 z"
       id="path7"
       style="stroke-width:2.02528" />
    <path
       d="m 824.8663,365.77371 c -2.8151,4.51635 -6.5011,9.35678 -11.058,14.54149 a 140.53385,140.53385 0 0 1 -14.906,14.54144 c -6.5822,5.48852 -13.1643,9.90362 -19.7667,13.26557 -6.5822,3.36197 -13.0428,5.02269 -19.3819,5.02269 -4.5163,0 -8.3036,-1.19491 -11.3415,-3.5645 -3.0582,-2.36956 -4.5772,-5.87328 -4.5772,-10.51117 0,-5.85304 1.681,-11.82761 5.0227,-17.92368 3.362,-6.09609 7.5543,-11.66558 12.6175,-16.74903 5.0632,-5.06319 10.6124,-9.1745 16.6478,-12.3542 6.0353,-3.17967 11.7466,-4.75937 17.1135,-4.75937 3.5443,0 6.6227,0.64807 9.2353,1.92401 2.6126,1.27591 3.929,3.50371 3.929,6.6834 0,1.4582 -0.405,2.69362 -1.1949,3.66575 -0.7898,0.97213 -1.762,1.76199 -2.9366,2.36957 -1.1544,0.60759 -2.4506,1.0734 -3.8481,1.37719 -1.3974,0.3038 -2.6531,0.52658 -3.7467,0.64809 0.486,-1.21517 0.9114,-2.47084 1.2759,-3.74675 0.3645,-1.27592 0.5468,-2.59236 0.5468,-3.92906 0,-4.51635 -2.1468,-6.76441 -6.3998,-6.76441 -3.1797,0 -6.9265,1.55946 -11.2606,4.65812 -4.3341,3.11895 -8.4049,7.04797 -12.2529,11.80737 -3.848,4.75939 -7.1087,10.00487 -9.7821,15.7364 -2.6936,5.73153 -4.0302,11.28077 -4.0302,16.64776 0,3.30119 0.7493,6.09608 2.2885,8.40489 1.5189,2.32906 3.8683,3.48348 7.0479,3.48348 4.2734,0 9.1745,-1.39744 14.7238,-4.21259 5.5493,-2.79486 10.9365,-6.27835 16.182,-10.43015 5.4885,-4.27335 10.7542,-9.1745 15.8174,-14.72376 5.0631,-5.54926 9.296,-10.93648 12.7187,-16.18194 l 1.2759,1.09363 z"
       id="path8"
       style="stroke-width:2.02528" />
    <path
       d="m 873.3312,348.76139 h 11.8883 c -4.5163,6.3391 -8.8504,12.49596 -13.0023,18.47051 a 512.67821,512.67821 0 0 0 -11.0579,16.5465 c -3.2405,5.0632 -5.8328,9.5188 -7.7771,13.36682 -1.9443,3.84803 -2.9367,6.86568 -2.9367,9.05298 0,3.17969 1.6405,4.75939 4.9417,4.75939 2.5519,0 5.8126,-1.25566 9.7821,-3.74675 3.9695,-2.49109 8.2631,-5.9543 12.901,-10.32892 4.6379,-4.39484 9.3973,-9.51877 14.2579,-15.37182 4.881,-5.85305 9.5188,-12.07065 13.9137,-18.65279 l 1.0936,0.36454 c -3.2809,5.00244 -7.1694,10.38968 -11.6251,16.18197 -4.4556,5.79227 -9.1137,11.19976 -13.9946,16.18193 -4.8809,5.00243 -9.7618,9.17451 -14.6428,12.53646 -4.8809,3.36197 -9.458,5.02269 -13.7313,5.02269 -3.5442,0 -6.1366,-0.89114 -7.7771,-2.65312 -1.6404,-1.76199 -2.4708,-3.86828 -2.4708,-6.31885 0,-1.70124 0.2633,-3.3822 0.8304,-5.02268 0.5468,-1.64048 1.1341,-3.32145 1.7417,-5.02269 l -0.3645,-0.18227 c -1.5798,1.70123 -3.5645,3.68599 -5.9544,5.9543 a 73.201552,73.201552 0 0 1 -7.6758,6.31887 c -2.7543,1.94426 -5.5897,3.60499 -8.5061,4.94166 -2.9367,1.33669 -5.7315,2.00503 -8.4252,2.00503 -4.5163,0 -7.6757,-1.39745 -9.5187,-4.21257 -1.8431,-2.81514 -2.7544,-5.97457 -2.7544,-9.5188 0,-5.00243 1.5797,-10.51118 4.7594,-16.5465 3.1796,-6.03532 7.1897,-11.7061 12.0706,-17.01231 4.8809,-5.30623 10.1871,-9.72132 15.9187,-13.26555 5.7315,-3.54424 11.1592,-5.30623 16.2832,-5.30623 2.4303,0 4.5771,0.3443 6.3998,1.01263 1.8228,0.66835 3.3418,1.57973 4.5772,2.75438 1.2151,1.15441 2.167,2.47085 2.8354,3.92904 0.6683,1.4582 1.1949,2.99741 1.5594,4.57712 h 0.3646 l 6.0353,-10.79472 z m -59.8267,51.23947 c 0,2.81513 0.5671,4.98218 1.7418,6.50113 1.1544,1.51897 2.7746,2.28857 4.8404,2.28857 2.0658,0 4.5163,-0.74936 7.3112,-2.28857 2.7949,-1.51895 5.7315,-3.56448 8.7694,-6.13659 3.038,-2.55185 6.0556,-5.50876 9.053,-8.87069 2.9974,-3.36197 5.6303,-6.92646 7.9594,-10.69345 2.3088,-3.78727 4.2125,-7.61505 5.6707,-11.52383 1.4582,-3.90879 2.1873,-7.61504 2.1873,-11.15926 0,-2.79489 -0.7898,-4.94168 -2.3695,-6.39987 -1.5797,-1.45821 -3.5443,-2.18731 -5.8531,-2.18731 -3.6657,0 -7.7568,1.57971 -12.2529,4.75941 -4.5164,3.17967 -8.7897,7.23023 -12.7997,12.1719 a 75.044553,75.044553 0 0 0 -10.1467,16.38448 c -2.7543,5.97456 -4.1113,11.70608 -4.1113,17.19457 z"
       id="path9"
       style="stroke-width:2.02528" />
    <path
       d="m 937.9172,327.55676 -14.4606,21.22488 h 24.1616 l -1.0936,2.18731 h -24.5059 c -4.8808,7.93909 -9.2352,14.78449 -13.0832,20.57679 -3.848,5.79228 -7.0682,10.79471 -9.7011,15.0073 -2.6328,4.21256 -4.5973,7.7568 -5.9543,10.61243 -1.3367,2.87588 -2.005,5.38725 -2.005,7.59479 0,2.32906 0.7899,3.92904 2.3898,4.84042 1.5797,0.91135 3.4025,1.37717 5.4885,1.37717 4.3949,0 9.2353,-1.68098 14.5415,-5.02269 5.3062,-3.3417 10.5719,-7.47325 15.8174,-12.35417 5.2455,-4.88092 10.2479,-10.06562 15.0073,-15.55412 4.7593,-5.48848 8.7694,-10.43016 12.0706,-14.82502 l 1.0937,0.72911 c -4.1519,5.24547 -8.6885,10.75422 -13.6301,16.54651 a 181.91023,181.91023 0 0 1 -15.2706,15.91864 c -5.2454,4.82016 -10.5112,8.80996 -15.8174,11.98965 -5.3062,3.17968 -10.3289,4.75939 -15.0883,4.75939 -3.7873,0 -7.048,-1.15441 -9.7821,-3.48349 -2.7341,-2.32906 -4.1113,-5.54924 -4.1113,-9.70104 0,-2.79489 0.7899,-5.95431 2.3696,-9.41754 1.5797,-3.48347 3.6657,-7.23024 6.2176,-11.26053 2.5721,-4.03031 5.4682,-8.4049 8.6884,-13.16429 3.2202,-4.7594 6.5416,-9.82258 9.9644,-15.18957 h -9.8834 l 1.0937,-2.1873 h 10.2479 l 14.2579,-21.22488 h 10.977 z"
       id="path10"
       style="stroke-width:2.02528" />
    <path
       d="m 1038.7151,365.40916 c -2.9367,3.3012 -6.2175,5.9138 -9.8832,7.85807 -3.6657,1.94427 -7.2505,2.93664 -10.7948,2.93664 -3.5442,0 -6.3391,-0.7696 -8.7694,-2.28855 -2.4506,-1.51896 -4.3341,-3.32146 -5.6708,-5.38725 h -0.3644 c -1.2153,4.63788 -3.4835,9.57956 -6.7646,14.82502 a 76.397438,76.397438 0 0 1 -11.8073,14.46046 67.974316,67.974316 0 0 1 -15.0883,10.97701 c -5.4885,2.93665 -11.0985,4.39483 -16.8301,4.39483 -5.2454,0 -9.215,-1.51894 -11.8883,-4.57711 -2.6734,-3.03792 -4.0303,-7.12896 -4.0303,-12.25291 0,-2.67337 0.6683,-5.79229 2.0049,-9.33652 1.3367,-3.54423 3.2,-7.10873 5.5696,-10.69344 2.3695,-3.60501 5.1847,-7.12898 8.4252,-10.61246 3.2403,-3.48348 6.7441,-6.58215 10.5111,-9.33653 3.767,-2.75436 7.777,-4.94166 11.9896,-6.58214 4.2125,-1.64046 8.4455,-2.47082 12.7188,-2.47082 5.0025,0 8.8708,1.45818 11.625,4.39484 2.7543,2.93665 4.2329,6.70365 4.4759,11.34154 0.243,2.81513 1.5594,5.38725 3.929,7.77705 2.3696,2.36957 5.6304,3.56449 9.7821,3.56449 3.6657,0 7.1088,-0.91137 10.329,-2.73413 3.2403,-1.82273 6.2581,-4.21257 9.053,-7.12896 l 1.458,0.91137 z m -92.0285,35.3208 c 0,3.17967 0.6077,5.67076 1.8227,7.49352 1.2152,1.82273 3.0379,2.75437 5.4886,2.75437 3.281,0 6.5416,-0.89111 9.7821,-2.6531 3.2405,-1.76199 6.339,-4.09106 9.3366,-6.9467 2.9973,-2.85565 5.7517,-6.13658 8.3237,-9.78209 a 84.859036,84.859036 0 0 0 6.6835,-11.34154 c 1.8835,-3.90878 3.3823,-7.71629 4.4759,-11.44281 1.0936,-3.72651 1.6403,-7.1087 1.6403,-10.14662 0,-2.55185 -0.648,-4.71889 -1.924,-6.50113 -1.2758,-1.76199 -3.2606,-2.65312 -5.9541,-2.65312 -2.6937,0 -5.3065,0.83037 -8.2429,2.47085 -2.9366,1.64047 -5.8936,3.8075 -8.8709,6.50112 a 65.568292,65.568292 0 0 0 -8.5061,9.33653 94.944905,94.944905 0 0 0 -7.2302,10.97698 c -2.1264,3.78728 -3.8075,7.55428 -5.0227,11.34155 -1.2151,3.78725 -1.8228,7.31123 -1.8228,10.61244 z"
       id="path11"
       style="stroke-width:2.02528" />
    <path
       d="m 1056.4565,348.76139 -23.2297,33.84234 0.3644,0.36456 c 1.7013,-2.06577 3.8683,-4.47586 6.5012,-7.23023 a 190.86195,190.86195 0 0 1 8.6074,-8.4049 c 3.1189,-2.85563 6.3796,-5.69102 9.782,-8.50615 a 121.75955,121.75955 0 0 1 10.0657,-7.49352 c 0.6076,-1.21516 1.2759,-2.1873 2.005,-2.93666 0.7291,-0.72909 2.2076,-1.09364 4.395,-1.09364 1.3365,0 2.5315,0.0203 3.5643,0.10132 1.0329,0.0607 2.1063,0.16203 3.1999,0.2633 -2.0658,2.08604 -4.091,4.59737 -6.0352,7.59477 a 17.484204,17.484204 0 0 0 -2.9367,9.78209 c 0,2.81512 0.7088,5.00242 2.1063,6.58215 1.3974,1.57971 3.1391,2.36956 5.205,2.36956 1.8227,0 3.6252,-0.36456 5.4074,-1.09364 1.7621,-0.72911 3.4431,-1.64048 5.0228,-2.75437 1.5796,-1.09366 3.0986,-2.24806 4.577,-3.48349 1.4582,-1.21516 2.7544,-2.30881 3.848,-3.30119 L 1100,364.0928 c -1.2152,1.21516 -2.6127,2.53159 -4.2125,3.92902 -1.5798,1.39744 -3.3012,2.71387 -5.124,3.92904 -1.8228,1.21515 -3.7872,2.2278 -5.853,3.01766 -2.0658,0.78984 -4.2126,1.19491 -6.3999,1.19491 -3.9087,0 -7.0479,-1.19491 -9.4176,-3.56449 -2.3695,-2.36956 -3.5644,-5.69102 -3.5644,-9.96435 0,-2.93665 0.6684,-5.54925 2.0051,-7.85808 l -0.3647,-0.36453 c -5.0024,3.4227 -10.4909,7.89856 -16.4654,13.44781 -5.9746,5.54926 -12.3137,12.11116 -19.0173,19.66542 -2.4507,2.69362 -4.962,6.2176 -7.5948,10.61246 -2.6125,4.39485 -4.9012,8.9112 -6.8657,13.52883 h -11.8884 c 6.5821,-10.49091 13.1642,-20.92109 19.7666,-31.2905 6.5823,-10.36941 13.3466,-20.9211 20.3135,-31.65504 h 11.1594 z M 204.68649,183.98499 v -23.61471 h -6.50114 v 8.04034 h -3.88854 v -11.96937 h 25.49824 v 11.96937 h -3.88853 v -8.04034 h -6.48088 v 23.61471 h 4.09105 v 3.94928 h -12.88076 v -3.94928 h 4.0303 z m 23.71597,0 v -23.61471 h -3.58473 V 156.421 h 12.05038 v 3.94928 h -3.7265 v 9.01246 h 13.69085 v -9.01246 h -3.68599 V 156.421 h 12.05039 v 3.94928 h -3.60499 v 23.61471 h 3.60499 v 3.94928 h -12.05039 v -3.94928 h 3.68599 v -10.65296 h -13.69085 v 10.65296 h 3.7265 v 3.94928 h -12.05038 v -3.94928 z m 36.57648,0 v -23.61471 h -4.07081 V 156.421 h 26.16657 v 9.47828 h -3.88853 v -5.54925 h -13.44782 v 9.35677 h 11.70606 v 3.94927 h -11.70606 v 10.28842 h 13.44782 v -5.73153 h 3.88853 v 9.66057 h -26.16657 v -3.94931 h 4.07081 z m 88.05896,285.96888 v -19.1996 h -3.30119 v -3.19996 h 10.47067 v 3.19996 h -3.13917 v 19.1996 h 7.83782 v -8.70868 h 3.60498 v 11.90861 h -18.7743 v -3.19993 z m 20.31352,-9.70108 c 0,-3.72649 1.21517,-6.82517 3.64549,-9.33651 2.43034,-2.51134 5.58976,-3.74676 9.49854,-3.74676 3.90879,0 7.14923,1.25569 9.62006,3.74676 2.47085,2.51134 3.72652,5.63026 3.72652,9.39728 0,3.76702 -1.25567,7.00744 -3.78727,9.5188 -2.51134,2.49108 -5.73153,3.74675 -9.62006,3.74675 -2.47084,0 -4.75941,-0.58732 -6.82519,-1.78223 -2.08601,-1.17467 -3.64548,-2.8354 -4.67837,-4.94169 a 14.845269,14.845269 0 0 1 -1.55947,-6.6024 z m 4.21257,0 c 0,2.81515 0.83036,5.16447 2.47084,7.06821 1.64046,1.90377 3.80752,2.85565 6.48088,2.85565 2.67337,0 4.82015,-0.97213 6.54164,-2.91639 1.70124,-1.94427 2.55185,-4.27333 2.55185,-6.96694 0,-2.69362 -0.87087,-5.0227 -2.61261,-6.9062 -1.74173,-1.88351 -3.90879,-2.81514 -6.54165,-2.81514 -2.63283,0 -4.73913,0.93163 -6.39986,2.77464 -1.66073,1.86324 -2.49109,4.15181 -2.49109,6.92643 z m 50.26734,2.4911 3.32144,1.86325 c -0.74936,2.8354 -2.24805,5.04294 -4.53661,6.62266 -2.2683,1.55945 -4.90115,2.34931 -7.83782,2.34931 -3.88852,0 -6.98721,-1.25567 -9.33651,-3.76701 -2.34932,-2.51135 -3.50374,-5.63025 -3.50374,-9.33651 0,-4.07081 1.17467,-7.291 3.54425,-9.70107 2.34931,-2.41008 5.42773,-3.605 9.215,-3.605 3.34169,0 6.15683,0.91138 8.44539,2.73413 v -2.32909 h 3.32146 v 8.22263 h -3.32146 c -0.7291,-1.68098 -1.86325,-2.9569 -3.40246,-3.86827 -1.5392,-0.91137 -3.13918,-1.37718 -4.84041,-1.37718 -2.55183,0 -4.65812,0.93162 -6.2986,2.75437 -1.64048,1.843 -2.45059,4.17207 -2.45059,6.96694 0,2.79489 0.87087,5.22522 2.63286,7.06822 1.76199,1.82274 3.82777,2.75436 6.23784,2.75436 1.96453,0 3.76702,-0.64809 5.38725,-1.90374 1.6202,-1.25568 2.75436,-3.07842 3.42271,-5.42775 z m 24.6881,1.41769 h -9.21499 l -1.96454,5.79229 h 3.11895 v 3.19993 h -10.08588 v -3.19993 h 3.09868 l 6.9872,-19.5034 h -3.09867 v -2.89616 h 13.08328 v 2.89616 h -3.19995 l 7.16948,19.5034 h 2.85564 v 3.19993 h -10.02512 v -3.19993 h 3.17969 z m -0.95188,-2.99741 -3.40245,-10.7137 h -0.34432 l -3.54421,10.7137 z m 15.89841,8.7897 v -19.1996 h -3.30119 v -3.19996 h 10.47067 v 3.19996 h -3.13917 v 19.1996 h 7.8378 v -8.70868 h 3.605 v 11.90861 h -18.7743 v -3.19993 z m 34.32844,0 v -19.1996 h -3.66576 v -3.19996 h 8.74916 l 11.2201,19.90848 v -16.70852 h -3.6253 v -3.19996 h 10.5112 v 3.19996 h -3.767 v 22.66281 h -3.9696 l -12.2934,-21.85272 v 18.38951 h 3.6658 v 3.19993 h -10.49096 v -3.19993 z m 30.2576,0 v -19.1996 h -3.3012 v -3.19996 h 21.2654 v 7.71631 h -3.1594 v -4.4961 h -10.9365 v 7.61503 h 9.5188 v 3.19994 h -9.5188 v 8.36438 h 10.9365 v -4.65813 h 3.1594 v 7.85806 h -21.2654 v -3.19993 z m 31.4525,3.46321 -6.5214,-22.66281 h -3.0784 v -3.19996 h 9.8024 v 3.19996 h -3.0785 l 4.8404,16.74902 4.6582,-16.74902 h -3.0379 v -3.19996 h 11.7668 v 3.19996 h -2.9974 l 4.6784,16.74902 4.7594,-16.74902 h -3.0379 v -3.19996 h 9.4175 v 3.19996 h -3.0177 l -6.3998,22.66281 h -3.6658 l -5.7518,-20.25274 -5.7315,20.25274 h -3.5847 z m 32.0399,-0.24302 v -9.29601 h 3.1999 v 2.2683 c 1.5392,2.79488 3.5443,4.19232 6.0151,4.19232 1.2556,0 2.3291,-0.3848 3.1999,-1.1544 0.8709,-0.76961 1.2962,-1.78225 1.2962,-3.03792 0,-1.25567 -0.3646,-2.08604 -1.0734,-2.6126 -0.7088,-0.52657 -2.0455,-1.07341 -4.0303,-1.59997 -2.2886,-0.60758 -3.9898,-1.19492 -5.1037,-1.74172 -1.1139,-0.54684 -1.9848,-1.31645 -2.6328,-2.32909 -0.6684,-1.01264 -0.9924,-2.20754 -0.9924,-3.60498 0,-2.14679 0.7088,-3.86828 2.1468,-5.1442 1.4379,-1.29618 3.2201,-1.92402 5.3872,-1.92402 2.0455,0 3.9493,0.66834 5.7113,1.98477 v -1.72148 h 3.1189 v 7.7568 h -3.1189 v -1.78224 c -1.3165,-1.98477 -3.119,-2.97715 -5.4278,-2.97715 -1.3974,0 -2.4708,0.32405 -3.2202,0.97213 -0.7493,0.64809 -1.1341,1.41769 -1.1341,2.30882 0,0.68858 0.1823,1.29617 0.5671,1.82273 0.3848,0.52658 0.8506,0.91139 1.4582,1.15442 0.5873,0.24304 1.7417,0.58732 3.4834,1.03289 2.2481,0.58732 3.8886,1.13415 4.9012,1.64047 1.0126,0.50631 1.9038,1.35693 2.6329,2.55185 0.7291,1.19491 1.1139,2.55185 1.1139,4.11132 0,2.18728 -0.7696,3.98979 -2.3089,5.40748 -1.5392,1.41768 -3.4429,2.12653 -5.7112,2.12653 -2.2683,0 -4.4354,-0.83036 -6.2986,-2.51134 v 2.10629 h -3.2 z m 34.6929,0 v -9.29601 h 3.2 v 2.2683 c 1.5392,2.79488 3.5442,4.19232 6.0151,4.19232 1.2556,0 2.329,-0.3848 3.1999,-1.1544 0.8708,-0.76961 1.2962,-1.78225 1.2962,-3.03792 0,-1.25567 -0.3646,-2.08604 -1.0734,-2.6126 -0.7089,-0.52657 -2.0456,-1.07341 -4.0303,-1.59997 -2.2886,-0.60758 -3.9898,-1.19492 -5.1037,-1.74172 -1.1139,-0.54684 -1.9848,-1.31645 -2.6329,-2.32909 -0.6683,-1.01264 -0.9924,-2.20754 -0.9924,-3.60498 0,-2.14679 0.7089,-3.86828 2.1468,-5.1442 1.438,-1.29618 3.2202,-1.92402 5.3873,-1.92402 2.0455,0 3.9492,0.66834 5.7112,1.98477 v -1.72148 h 3.119 v 7.7568 h -3.119 v -1.78224 c -1.3164,-1.98477 -3.1189,-2.97715 -5.4277,-2.97715 -1.3974,0 -2.4708,0.32405 -3.2202,0.97213 -0.7493,0.64809 -1.1341,1.41769 -1.1341,2.30882 0,0.68858 0.1822,1.29617 0.567,1.82273 0.3848,0.52658 0.8507,0.91139 1.4582,1.15442 0.5874,0.24304 1.7418,0.58732 3.4835,1.03289 2.2481,0.58732 3.8885,1.13415 4.9012,1.64047 1.0126,0.50631 1.9037,1.35693 2.6328,2.55185 0.7291,1.19491 1.1139,2.55185 1.1139,4.11132 0,2.18728 -0.7696,3.98979 -2.3088,5.40748 -1.5392,1.41768 -3.443,2.12653 -5.7113,2.12653 -2.2683,0 -4.4353,-0.83036 -6.2986,-2.51134 v 2.10629 h -3.1999 z m 25.2958,-3.22019 v -19.1996 h -2.7544 v -3.19996 h 9.377 v 3.19996 h -2.7544 v 19.1996 h 2.7544 v 3.19993 h -9.377 v -3.19993 z m 14.3186,0 v -19.1996 h -3.6657 v -3.19996 h 8.7492 l 11.22,19.90848 V 450.75427 H 682.53 v -3.19996 h 10.5111 v 3.19996 h -3.767 v 22.66281 h -3.9695 l -12.2934,-21.85272 v 18.38951 h 3.6657 v 3.19993 H 666.186 v -3.19993 z m 49.3965,-7.20998 3.3215,1.86325 c -0.7494,2.8354 -2.2481,5.04294 -4.5367,6.62266 -2.2683,1.55945 -4.9011,2.34931 -7.8378,2.34931 -3.8885,0 -6.9872,-1.25567 -9.3365,-3.76701 -2.3493,-2.51135 -3.5037,-5.63025 -3.5037,-9.33651 0,-4.07081 1.1746,-7.291 3.5442,-9.70107 2.3493,-2.41008 5.4277,-3.605 9.215,-3.605 3.3417,0 6.1568,0.91138 8.4454,2.73413 v -2.32909 h 3.3215 v 8.22263 h -3.3215 c -0.7291,-1.68098 -1.8632,-2.9569 -3.4025,-3.86827 -1.5392,-0.91137 -3.1391,-1.37718 -4.8404,-1.37718 -2.5518,0 -4.6581,0.93162 -6.2986,2.75437 -1.6404,1.843 -2.4506,4.17207 -2.4506,6.96694 0,2.79489 0.8709,5.22522 2.6329,7.06822 1.762,1.82274 3.8278,2.75436 6.2379,2.75436 1.9645,0 3.767,-0.64809 5.3872,-1.90374 1.6202,-1.25568 2.7544,-3.07842 3.4227,-5.42775 z m 12.1314,7.20998 v -19.1996 h -3.3012 v -3.19996 h 21.2654 v 7.71631 h -3.1594 v -4.4961 h -10.9365 v 7.61503 h 9.5188 v 3.19994 h -9.5188 v 8.36438 h 10.9365 v -4.65813 h 3.1594 v 7.85806 h -21.2654 v -3.19993 z m 42.8346,0.10132 v -19.38188 h -3.5037 v -3.07842 h 6.9872 v 22.4603 h 3.3214 v 3.11894 h -10.3289 v -3.11894 h 3.5037 z m 16.0604,-4.45561 h 3.1189 c 0.1823,1.45822 0.6886,2.65313 1.5392,3.56448 0.8507,0.93164 1.8633,1.3772 3.0582,1.3772 1.6405,0 2.9164,-0.85062 3.8278,-2.55184 0.9114,-1.70124 1.3772,-4.03032 1.3974,-6.96696 -1.7215,1.88351 -3.7265,2.83539 -5.9948,2.83539 -2.0253,0 -3.7265,-0.7291 -5.0834,-2.1873 -1.357,-1.45819 -2.0456,-3.38221 -2.0456,-5.75179 0,-2.36956 0.6886,-4.47585 2.0658,-6.17707 1.3772,-1.70124 3.2607,-2.5721 5.6505,-2.5721 2.6734,0 4.7999,1.09365 6.3999,3.28094 1.6,2.18729 2.3898,5.44799 2.3898,9.76183 0,4.31383 -0.7696,7.372 -2.3088,9.76183 -1.5392,2.38982 -3.767,3.60498 -6.6834,3.60498 -2.2683,0 -4.0303,-0.74934 -5.286,-2.24805 -1.2556,-1.4987 -1.924,-3.40247 -2.005,-5.71128 z m 12.7592,-8.44538 c -0.5265,-4.63788 -2.2278,-6.9467 -5.0834,-6.9467 -1.4177,0 -2.5316,0.52656 -3.362,1.57972 -0.8303,1.05313 -1.2354,2.32906 -1.2354,3.86828 0,1.37716 0.3646,2.53158 1.0937,3.4632 0.7291,0.93163 1.7822,1.39744 3.1797,1.39744 1.8227,0 3.6252,-1.11389 5.4074,-3.36194 z m 10.3087,8.44538 h 3.1189 c 0.1823,1.45822 0.6886,2.65313 1.5392,3.56448 0.8506,0.93164 1.8633,1.3772 3.0582,1.3772 1.6405,0 2.9164,-0.85062 3.8278,-2.55184 0.9113,-1.70124 1.3772,-4.03032 1.3974,-6.96696 -1.7215,1.88351 -3.7265,2.83539 -5.9948,2.83539 -2.0253,0 -3.7265,-0.7291 -5.0834,-2.1873 -1.357,-1.45819 -2.0456,-3.38221 -2.0456,-5.75179 0,-2.36956 0.6886,-4.47585 2.0658,-6.17707 1.3772,-1.70124 3.2607,-2.5721 5.6505,-2.5721 2.6734,0 4.7999,1.09365 6.3999,3.28094 1.6,2.18729 2.3898,5.44799 2.3898,9.76183 0,4.31383 -0.7696,7.372 -2.3088,9.76183 -1.5392,2.38982 -3.767,3.60498 -6.6834,3.60498 -2.2683,0 -4.0303,-0.74934 -5.286,-2.24805 -1.2557,-1.4987 -1.924,-3.40247 -2.005,-5.71128 z m 12.7592,-8.44538 c -0.5265,-4.63788 -2.2278,-6.9467 -5.0834,-6.9467 -1.4177,0 -2.5316,0.52656 -3.362,1.57972 -0.8303,1.05313 -1.2354,2.32906 -1.2354,3.86828 0,1.37716 0.3646,2.53158 1.0937,3.4632 0.7291,0.93163 1.7822,1.39744 3.1796,1.39744 1.8228,0 3.6253,-1.11389 5.4075,-3.36194 z m 26.5109,6.86568 -0.243,9.15425 h -16.3643 c 0,-1.762 0.3241,-3.46324 0.9519,-5.0632 0.6278,-1.59997 1.519,-3.01766 2.6734,-4.21255 1.1544,-1.21519 2.8961,-2.67339 5.2657,-4.37462 1.4784,-1.09364 2.4911,-2.00501 3.0176,-2.73412 0.5266,-0.72911 0.7899,-1.57971 0.7899,-2.55185 0,-1.19492 -0.3646,-2.16703 -1.1139,-2.91639 -0.7494,-0.74935 -1.7822,-1.13415 -3.0987,-1.13415 -1.5392,0 -2.6531,0.42531 -3.3619,1.29618 -0.7089,0.8506 -1.0734,2.2683 -1.0734,4.23281 0,0.48606 0,0.95189 0.041,1.39744 h -3.4025 v -1.0734 c 0,-2.77462 0.6481,-4.94166 1.9645,-6.50112 1.3165,-1.55946 3.2405,-2.34932 5.7923,-2.34932 2.5519,0 4.5366,0.66833 5.8936,2.00502 1.3569,1.33667 2.0455,2.97715 2.0455,4.94167 0,1.64048 -0.4456,3.01767 -1.3367,4.17207 -0.8911,1.15441 -2.6126,2.6126 -5.1442,4.39486 -2.4505,1.74171 -4.0708,3.15942 -4.8201,4.25307 -0.7696,1.09365 -1.2152,2.06578 -1.3367,2.91639 h 9.6403 l 0.1417,-5.81255 h 3.1189 z"
       id="path12"
       style="stroke-width:2.02528" />
  </g>
</svg>
